<svg width="1072" height="827" viewBox="0 0 1072 827" fill="none" xmlns="http://www.w3.org/2000/svg">
<g id="piano">
<path id="Vector" d="M829.43 735.47L825 738.37L833.38 798.57L854.17 810.45L1008.22 808.93L1005.43 773.48L829.43 735.47Z" fill="#3A3768"/>
<path id="Vector_2" opacity="0.1" d="M1005.93 0.870009C1005.93 0.870009 1003.32 37.35 978.52 29.72C978.52 29.72 973.93 29.97 972.43 25.64C972.43 25.64 974.32 25.82 974.16 22.09C974.112 20.7479 974.226 19.4048 974.5 18.09C974.855 16.3316 975.775 14.7373 977.12 13.55V13.55C977.12 13.55 982.67 3.93001 999.82 2.18001C999.82 2.18001 1003.82 -0.259993 1004.75 -0.0299927L1001.34 5.74001C1001.34 5.74001 997.21 3.07001 993.34 4.22001C993.34 4.22001 1001.22 5.47001 1000.88 6.62001C1000.81 6.85001 998.88 9.62001 998.88 9.62001C998.88 9.62001 991.68 5.01001 985.74 6.98001C985.74 6.98001 995.33 7.20001 998.17 10.67L995.1 14.67C995.1 14.67 987.8 9.42001 980.93 11.42C980.93 11.42 990.93 12.01 994.41 15.5L990.86 19C990.86 19 983.57 14 977.86 15.71C977.86 15.71 989.36 17.56 989.96 19.71C989.96 19.71 986.5 22.71 985.2 23.08C985.2 23.08 979.89 19.63 976.67 20.9C976.67 20.9 984.23 22.95 984.15 23.8C984.15 23.8 978.6 26.52 975.06 26.41C978.313 26.6705 981.577 26.0776 984.53 24.69C983.901 26.5994 982.726 28.2822 981.15 29.53C981.15 29.53 984.83 29.53 985.87 24.01C985.87 24.01 990.11 21.72 990.44 21.01C990.44 21.01 990.18 26.55 988.26 29.67C988.26 29.67 992.05 27.2 991.42 20.11L995.07 16.68C995.07 16.68 995.07 24.03 993.6 26.94C993.6 26.94 997.08 23.82 995.92 15.74L998.98 11.89C998.98 11.89 999.49 18.21 998.52 21.81C998.52 21.81 1001.12 18.22 999.81 10.75L1001.55 7.93001C1001.55 7.93001 1001.84 12.56 1001.81 13.93C1001.78 15.3 1002.13 15.39 1002.13 15.39C1002.98 12.5982 1003.04 9.62506 1002.31 6.80001C1002.31 6.80001 1005.59 0.700009 1005.93 0.870009Z" fill="#00BFA6"/>
<path id="Vector_3" d="M833.54 802.6C828.82 800.72 824.11 798.807 819.41 796.86V767.75L832.31 773.64V773.84L833.36 798.57L833.54 802.6Z" fill="#3A3768"/>
<path id="Vector_4" opacity="0.1" d="M382.44 66.67C382.44 66.67 409.63 91.14 388.39 106.02C388.39 106.02 385.76 109.8 381.39 108.33C381.39 108.33 382.69 106.95 379.65 104.78C378.576 103.999 377.596 103.097 376.73 102.09C375.55 100.732 374.848 99.025 374.73 97.23V97.23C374.73 97.23 370.54 86.94 379.73 72.33C379.73 72.33 380.27 67.66 381.02 67.08L383.47 73.32C383.47 73.32 378.83 74.94 377.36 78.71C377.36 78.71 383.18 73.25 383.87 74.23C384.02 74.43 385.02 77.59 385.02 77.59C385.02 77.59 377 80.42 374.93 86.34C374.93 86.34 380.99 78.9 385.47 78.79L386.71 83.65C386.71 83.65 378.04 86.25 375.41 92.87C375.41 92.87 382.02 85.33 386.91 84.74L387.48 89.74C387.48 89.74 379.08 92.43 376.92 97.96C376.92 97.96 385.45 89.96 387.54 90.88C387.54 90.88 387.79 95.45 387.27 96.7C387.27 96.7 381.27 98.78 380.32 102.1C380.32 102.1 386.58 97.39 387.2 97.97C387.2 97.97 385.94 104.02 383.68 106.75C385.881 104.343 387.415 101.402 388.13 98.22C389.251 99.8889 389.86 101.849 389.88 103.86C389.88 103.86 392.09 100.93 388.42 96.75C388.42 96.75 389.21 91.99 388.85 91.29C388.85 91.29 393.06 94.9 394.35 98.29C394.35 98.29 394.73 93.78 388.74 89.93L388.28 84.93C388.28 84.93 394.09 89.42 395.47 92.39C395.47 92.39 395.14 87.73 388.05 83.68L386.89 78.9C386.89 78.9 392.2 82.38 394.45 85.36C394.45 85.36 393.21 81.1 386.5 77.54L385.33 74.42C385.33 74.42 389.16 77.03 390.19 77.88C391.22 78.73 391.54 78.52 391.54 78.52C389.861 76.1329 387.552 74.2597 384.87 73.11C384.87 73.11 382.08 66.88 382.44 66.67Z" fill="#00BFA6"/>
<path id="Vector_5" opacity="0.1" d="M243.727 177.047C243.727 177.047 280.227 174.847 275.927 200.427C275.927 200.427 276.777 204.947 272.687 206.997C272.687 206.997 272.617 205.107 268.937 205.747C267.616 205.972 266.273 206.035 264.937 205.937C263.148 205.819 261.448 205.116 260.097 203.937V203.937C260.097 203.937 249.827 199.697 245.837 182.937C245.837 182.937 242.837 179.277 243.007 178.337L249.167 180.967C249.167 180.967 247.057 185.407 248.717 189.107C248.717 189.107 248.917 181.107 250.097 181.317C250.337 181.317 253.297 182.857 253.297 182.857C253.297 182.857 249.677 190.597 252.407 196.227C252.407 196.227 251.407 186.687 254.407 183.417L258.747 185.947C258.747 185.947 254.517 193.947 257.387 200.467C257.387 200.467 256.647 190.467 259.657 186.567L263.587 189.627C263.587 189.627 259.587 197.507 262.037 202.917C262.037 202.917 262.357 191.267 264.437 190.387C264.437 190.387 267.877 193.387 268.437 194.667C268.437 194.667 265.707 200.387 267.437 203.407C267.437 203.407 268.437 195.647 269.327 195.617C269.327 195.617 272.747 200.757 273.107 204.277C272.937 201.019 271.92 197.862 270.157 195.117C272.132 195.493 273.953 196.439 275.397 197.837C275.397 197.837 274.867 194.197 269.307 193.837C269.307 193.837 266.477 189.937 265.717 189.707C265.717 189.707 271.247 189.237 274.597 190.707C274.597 190.707 271.647 187.277 264.707 188.837L260.827 185.667C260.827 185.667 268.107 184.667 271.187 185.777C271.187 185.777 267.637 182.777 259.787 184.947L255.557 182.427C255.557 182.427 261.767 181.087 265.457 181.567C265.457 181.567 261.557 179.467 254.317 181.747L251.317 180.387C251.317 180.387 255.867 179.497 257.197 179.387C258.527 179.277 258.597 178.877 258.597 178.877C255.717 178.397 252.761 178.726 250.057 179.827C250.057 179.827 243.617 177.397 243.727 177.047Z" fill="#00BFA6"/>
<path id="Vector_6" opacity="0.1" d="M961.93 101.69C961.93 101.69 998.44 99.49 994.14 125.07C994.14 125.07 994.99 129.59 990.89 131.65C990.89 131.65 990.83 129.75 987.15 130.39C985.829 130.612 984.487 130.679 983.15 130.59C981.359 130.469 979.656 129.767 978.3 128.59V128.59C978.3 128.59 968.04 124.35 964.05 107.59C964.05 107.59 961.1 103.93 961.22 102.99L967.38 105.62C967.38 105.62 965.27 110.07 966.93 113.76C966.93 113.76 967.13 105.76 968.31 105.97C968.55 105.97 971.51 107.51 971.51 107.51C971.51 107.51 967.89 115.26 970.62 120.88C970.62 120.88 969.62 111.34 972.62 108.07L976.96 110.6C976.96 110.6 972.73 118.6 975.6 125.13C975.6 125.13 974.86 115.13 977.87 111.22L981.8 114.29C981.8 114.29 977.8 122.17 980.25 127.58C980.25 127.58 980.57 115.93 982.65 115.05C982.65 115.05 986.09 118.05 986.65 119.33C986.65 119.33 983.92 125.05 985.65 128.07C985.65 128.07 986.65 120.3 987.54 120.27C987.54 120.27 990.96 125.41 991.32 128.94C991.137 125.677 990.102 122.519 988.32 119.78C990.295 120.15 992.117 121.092 993.56 122.49C993.56 122.49 993.03 118.86 987.47 118.49C987.47 118.49 984.64 114.59 983.88 114.35C983.88 114.35 989.41 113.89 992.76 115.35C992.76 115.35 989.81 111.92 982.87 113.48L979.03 110.42C979.03 110.42 986.31 109.42 989.39 110.52C989.39 110.52 985.84 107.52 977.99 109.7L973.76 107.17C973.76 107.17 979.96 105.83 983.66 106.32C983.66 106.32 979.76 104.21 972.52 106.49L969.52 105.14C969.52 105.14 974.07 104.24 975.4 104.14C976.73 104.04 976.8 103.63 976.8 103.63C973.92 103.15 970.964 103.478 968.26 104.58C968.26 104.58 961.83 102.1 961.93 101.69Z" fill="#00BFA6"/>
<path id="Vector_7" opacity="0.1" d="M344.85 177.77C344.85 177.77 342.23 214.25 317.43 206.62C317.43 206.62 312.84 206.88 311.34 202.54C311.34 202.54 313.23 202.73 313.08 199C313.029 197.658 313.14 196.315 313.41 195C313.765 193.242 314.685 191.647 316.03 190.46V190.46C316.03 190.46 321.58 180.84 338.74 179.09C338.74 179.09 342.74 176.64 343.67 176.88L340.25 182.64C340.25 182.64 336.12 179.97 332.25 181.13C332.25 181.13 340.13 182.37 339.79 183.52C339.72 183.76 337.79 186.52 337.79 186.52C337.79 186.52 330.59 181.92 324.66 183.89C324.66 183.89 334.25 184.11 337.09 187.57L334.01 191.57C334.01 191.57 326.64 186.32 319.79 188.31C319.79 188.31 329.79 188.89 333.28 192.39L329.72 195.88C329.72 195.88 322.43 190.88 316.72 192.6C316.72 192.6 328.23 194.44 328.83 196.6C328.83 196.6 325.37 199.6 324.06 199.96C324.06 199.96 318.75 196.51 315.54 197.79C315.54 197.79 323.09 199.84 323.02 200.68C323.02 200.68 317.47 203.4 313.93 203.29C317.183 203.556 320.448 202.963 323.4 201.57C322.769 203.478 321.594 205.161 320.02 206.41C320.02 206.41 323.69 206.36 324.74 200.9C324.74 200.9 328.97 198.6 329.31 197.9C329.31 197.9 329.04 203.44 327.13 206.57C327.13 206.57 330.92 204.1 330.28 197.01L333.93 193.58C333.93 193.58 333.93 200.93 332.47 203.84C332.47 203.84 335.94 200.72 334.78 192.64L337.84 188.78C337.84 188.78 338.35 195.11 337.39 198.71C337.39 198.71 339.98 195.12 338.68 187.65L340.42 184.83C340.42 184.83 340.71 189.45 340.67 190.83C340.63 192.21 340.99 192.29 340.99 192.29C341.842 189.498 341.904 186.525 341.17 183.7C341.17 183.7 344.46 177.61 344.85 177.77Z" fill="#00BFA6"/>
<path id="Vector_8" opacity="0.1" d="M1057.58 69.48C1057.58 69.48 1084.76 93.94 1063.52 108.83C1063.52 108.83 1060.9 112.61 1056.52 111.13C1056.52 111.13 1057.82 109.75 1054.78 107.58C1053.7 106.802 1052.72 105.899 1051.86 104.89C1050.68 103.533 1049.98 101.826 1049.86 100.03C1049.86 100.03 1045.67 89.75 1054.86 75.13C1054.86 75.13 1055.4 70.46 1056.15 69.89L1058.6 76.12C1058.6 76.12 1053.96 77.74 1052.49 81.51C1052.49 81.51 1058.31 76.06 1059.01 77.03C1059.15 77.23 1060.16 80.39 1060.16 80.39C1060.16 80.39 1052.1 83.25 1050.01 89.14C1050.01 89.14 1056.07 81.71 1060.55 81.59L1061.79 86.46C1061.79 86.46 1053.12 89.06 1050.49 95.68C1050.49 95.68 1057.1 88.13 1061.99 87.54L1062.56 92.49C1062.56 92.49 1054.16 95.19 1052.01 100.71C1052.01 100.71 1060.53 92.76 1062.62 93.63C1062.62 93.63 1062.87 98.21 1062.35 99.46C1062.35 99.46 1056.35 101.53 1055.35 104.86C1055.35 104.86 1061.61 100.15 1062.23 100.73C1062.23 100.73 1060.97 106.78 1058.71 109.5C1060.91 107.095 1062.45 104.153 1063.16 100.97C1064.28 102.64 1064.89 104.6 1064.91 106.61C1064.91 106.61 1067.12 103.68 1063.45 99.5C1063.45 99.5 1064.24 94.75 1063.88 94.04C1063.88 94.04 1068.09 97.65 1069.38 101.04C1069.38 101.04 1069.76 96.53 1063.77 92.67L1063.31 87.67C1063.31 87.67 1069.12 92.15 1070.5 95.12C1070.5 95.12 1070.17 90.46 1063.09 86.42L1061.92 81.64C1061.92 81.64 1067.23 85.12 1069.48 88.09C1069.48 88.09 1068.24 83.84 1061.48 80.28L1060.33 77.17C1060.33 77.17 1064.16 79.79 1065.19 80.64C1066.22 81.49 1066.54 81.28 1066.54 81.28C1064.86 78.8914 1062.55 77.0152 1059.87 75.86C1059.87 75.86 1057.21 69.68 1057.58 69.48Z" fill="#00BFA6"/>
<path id="Vector_9" opacity="0.1" d="M764.76 136.81C764.76 136.81 762.14 173.29 737.35 165.66C737.35 165.66 732.75 165.91 731.26 161.58C731.26 161.58 733.14 161.76 732.99 158.03C732.944 156.688 733.055 155.346 733.32 154.03C733.675 152.272 734.595 150.677 735.94 149.49V149.49C735.94 149.49 741.5 139.87 758.65 138.12C758.65 138.12 762.65 135.68 763.58 135.91L760.16 141.68C760.16 141.68 756.03 139.01 752.16 140.16C752.16 140.16 760.04 141.41 759.7 142.56C759.63 142.79 757.76 145.56 757.76 145.56C757.76 145.56 750.56 140.95 744.62 142.92C744.62 142.92 754.21 143.14 757.05 146.61L753.97 150.61C753.97 150.61 746.6 145.36 739.76 147.35C739.76 147.35 749.76 147.94 753.24 151.43L749.69 154.93C749.69 154.93 742.4 149.93 736.69 151.64C736.69 151.64 748.2 153.49 748.8 155.64C748.8 155.64 745.34 158.64 744.04 159.01C744.04 159.01 738.72 155.56 735.51 156.83C735.51 156.83 743.07 158.88 742.99 159.73C742.99 159.73 737.44 162.45 733.9 162.34C737.153 162.6 740.417 162.008 743.37 160.62C742.737 162.527 741.562 164.209 739.99 165.46C739.99 165.46 743.66 165.46 744.71 159.94C744.71 159.94 748.95 157.65 749.28 156.94C749.28 156.94 749.01 162.48 747.1 165.6C747.1 165.6 750.89 163.13 750.25 156.04L753.9 152.61C753.9 152.61 753.9 159.96 752.44 162.87C752.44 162.87 755.91 159.75 754.75 151.67L757.81 147.82C757.81 147.82 758.32 154.14 757.36 157.74C757.36 157.74 759.96 154.15 758.65 146.68L760.39 143.86C760.39 143.86 760.68 148.49 760.64 149.86C760.6 151.23 760.96 151.32 760.96 151.32C761.818 148.529 761.88 145.554 761.14 142.73C761.14 142.73 764.37 136.64 764.76 136.81Z" fill="#00BFA6"/>
<path id="Vector_10" opacity="0.1" d="M833.54 802.6C828.82 800.72 824.11 798.807 819.41 796.86V767.75L832.31 773.64V773.84L833.36 798.57L833.54 802.6Z" fill="black"/>
<g id="Frame 1">
<path id="Vector_11" d="M926.511 436.214H836.718V526.006H926.511V436.214Z" fill="#FF6584"/>
<path id="Vector_12" opacity="0.1" d="M926.511 436.214H836.718V526.006H926.511V436.214Z" fill="black"/>
<path id="Vector_13" d="M867.642 477.768C867.642 477.768 880.309 512.074 867.642 518.407C854.975 524.74 913.031 518.407 913.031 518.407L929.392 505.212C929.392 505.212 892.448 494.657 897.725 470.379C903.003 446.101 867.642 477.768 867.642 477.768Z" fill="#FBBEBE"/>
<path id="Vector_14" opacity="0.1" d="M867.642 477.768C867.642 477.768 880.309 512.074 867.642 518.407C854.975 524.74 913.031 518.407 913.031 518.407L929.392 505.212C929.392 505.212 892.448 494.657 897.725 470.379C903.003 446.101 867.642 477.768 867.642 477.768Z" fill="black"/>
<path id="Vector_15" d="M763.668 821.883C763.668 821.883 811.169 888.911 803.252 907.384C795.335 925.856 799.558 937.467 783.724 943.801C767.891 950.134 763.668 961.745 777.391 961.218C791.113 960.69 809.058 956.995 811.697 952.245C814.336 947.495 820.669 924.8 829.641 921.634C838.614 918.467 855.503 906.328 843.364 891.55C831.225 876.772 800.638 822.34 803.001 816.833C805.363 811.327 763.668 821.883 763.668 821.883Z" fill="#FBBEBE"/>
<path id="Vector_16" d="M862.892 689.409C862.892 689.409 764.724 695.742 739.39 719.493C714.057 743.243 761.557 831.911 766.835 832.966C772.113 834.022 813.28 829.799 811.697 818.188C810.113 806.577 782.141 759.076 782.141 759.076C782.141 759.076 818.558 745.882 838.614 742.715C858.669 739.548 880.836 724.77 880.836 724.77L862.892 689.409Z" fill="#9493B6"/>
<path id="Vector_17" d="M818.03 674.631C818.03 674.631 819.613 733.215 834.391 735.326C849.169 737.437 834.391 690.465 834.391 690.465L833.864 672.52L818.03 674.631Z" fill="#FBBEBE"/>
<path id="Vector_18" d="M862.892 521.046C862.892 521.046 835.447 513.129 830.169 534.241C824.891 555.352 823.308 628.186 823.308 628.186L813.808 686.242C813.808 686.242 831.225 680.964 834.919 683.603L857.086 655.631L862.892 521.046Z" fill="#00BFA6"/>
<path id="Vector_19" opacity="0.1" d="M862.892 521.046C862.892 521.046 835.447 513.129 830.169 534.241C824.891 555.352 823.308 628.186 823.308 628.186L813.808 686.242C813.808 686.242 831.225 680.964 834.919 683.603L857.086 655.631L862.892 521.046Z" fill="black"/>
<path id="Vector_20" d="M948.393 667.77C948.393 667.77 986.393 731.104 961.587 749.576C936.781 768.049 862.892 803.41 862.892 803.41C862.892 803.41 902.475 830.327 904.587 839.3C906.698 848.272 885.586 872.55 878.197 873.078C870.808 873.606 849.169 848.8 825.947 842.466C802.724 836.133 788.474 790.743 813.808 773.854C839.142 756.965 862.892 728.993 862.892 728.993L855.507 688.359L948.393 667.77Z" fill="#9493B6"/>
<path id="Vector_21" d="M915.453 456.561C915.453 479.005 892.461 497.56 870.017 497.56C859.238 497.56 848.902 493.278 841.28 485.657C833.659 478.035 829.377 467.698 829.377 456.92C829.377 446.142 833.659 435.805 841.28 428.184C848.902 420.562 859.238 416.281 870.017 416.281C892.461 416.281 915.453 434.116 915.453 456.561Z" fill="#FBBEBE"/>
<path id="Vector_22" d="M880.309 515.24C880.309 515.24 916.726 499.407 916.726 497.296C916.726 495.184 937.837 502.046 942.587 506.268C947.337 510.49 949.976 509.962 953.143 518.407C956.309 526.851 937.309 605.491 937.309 605.491C937.309 605.491 947.865 666.186 953.67 671.992C959.476 677.798 906.698 686.242 906.698 686.242C906.698 686.242 871.864 692.576 866.058 695.215C860.253 697.854 849.697 701.548 851.808 695.215C853.919 688.881 862.892 684.131 847.586 676.214C847.586 676.214 852.864 650.353 847.586 638.742C842.308 627.13 818.03 584.908 837.558 554.296C857.086 523.685 866.058 512.601 866.058 512.601C866.058 512.601 872.92 518.407 880.309 515.24Z" fill="#00BFA6"/>
<path id="Vector_23" d="M891.92 659.325C891.92 659.325 850.753 677.584 838.35 679.274C825.947 680.964 788.474 690.464 809.058 698.909C829.641 707.354 860.78 694.687 860.78 694.687L904.586 676.214L891.92 659.325Z" fill="#FBBEBE"/>
<path id="Vector_24" opacity="0.1" d="M936.242 513.621C936.242 513.621 951.444 506.268 955.666 532.129C959.888 557.991 974.666 639.797 955.666 651.936C936.666 664.075 892.86 683.603 892.86 683.603C892.86 683.603 866.998 666.186 879.137 659.853C891.276 653.52 920.304 635.575 924.527 629.242C928.749 622.908 933.015 552.215 925.626 540.603C918.237 528.992 936.242 513.621 936.242 513.621Z" fill="black"/>
<path id="Vector_25" d="M935.198 507.324C935.198 507.324 956.309 506.268 960.532 532.129C964.754 557.991 979.532 639.797 960.532 651.936C941.531 664.075 897.725 683.603 897.725 683.603C897.725 683.603 871.864 666.186 884.003 659.853C896.142 653.52 925.17 635.575 929.392 629.242C933.615 622.908 926.226 556.935 918.837 545.324C911.448 533.713 935.198 507.324 935.198 507.324Z" fill="#00BFA6"/>
<path id="Vector_26" d="M860.006 388.509C853.527 389.391 846.577 391.761 843.317 397.429C841.722 400.203 841.206 403.457 839.977 406.411C836.585 414.564 828.349 419.432 822.402 425.959C814.653 434.466 810.804 447.285 815.375 457.846C817.144 461.935 820.019 465.439 822.198 469.325C828.279 480.169 828.604 493.191 828.777 505.621L829.117 530.063C829.169 533.795 829.21 537.602 828.087 541.162C826.963 544.721 824.454 548.054 820.894 549.178C824.821 550.54 829.09 550.55 833.024 549.206C836.957 547.863 840.328 545.244 842.602 541.766C843.088 544.844 842.811 547.994 841.796 550.941C840.781 553.887 839.059 556.539 836.78 558.665C846.456 556.386 854.57 549.349 859.682 540.823C864.794 532.297 867.164 522.381 868.227 512.497C868.789 507.269 868.987 501.864 867.335 496.872C866.172 493.356 864.143 490.205 862.217 487.042C857.251 478.888 852.78 470.216 851.18 460.804C849.579 451.392 851.186 441.066 857.297 433.732C859.643 430.898 862.598 428.63 865.943 427.096C869.287 425.563 872.934 424.804 876.612 424.875C880.29 425.018 883.87 426.101 887.009 428.023C890.148 429.945 892.741 432.64 894.54 435.851C895.952 438.509 897.962 442.11 900.823 441.177C901.353 440.952 901.87 440.698 902.372 440.416C905.562 438.964 909.186 441.829 910.593 445.039C915.03 455.166 906.855 466.221 906.01 477.244C905.224 487.499 910.941 497.171 917.776 504.856C929.58 518.077 944.999 527.551 962.128 532.106C959.621 531.474 957.372 530.078 955.695 528.109C962.659 528.388 969.631 527.804 976.451 526.369C969.025 520.773 961.546 515.129 955.346 508.199C949.146 501.268 944.236 492.883 942.899 483.68C941.105 471.331 945.704 457.957 940.445 446.64C935.637 436.293 923.713 430.511 919.359 419.966C914.936 409.254 912.068 399.948 900.357 395.285C887.575 390.196 873.816 386.629 860.006 388.509Z" fill="#FF6584"/>
</g>
<path id="Vector_27" d="M996.55 813.32C992.173 815.579 987.649 817.544 983.01 819.2H982.9V790.04L995.79 795.93V796.14L996.34 809.06L996.55 813.32Z" fill="#3A3768"/>
<path id="Vector_28" opacity="0.1" d="M996.55 813.32C992.173 815.579 987.649 817.544 983.01 819.2H982.9V790.04L995.79 795.93V796.14L996.34 809.06L996.55 813.32Z" fill="black"/>
<path id="note4" d="M716.067 248.885L716.114 248.876L709.122 208L670.459 220.283L676.244 256.844C674.252 255.584 671.877 255.074 669.543 255.404C667.209 255.734 665.068 256.884 663.504 258.647C661.939 260.41 661.053 262.671 661.002 265.028C660.952 267.385 661.741 269.682 663.229 271.511C664.716 273.339 666.805 274.579 669.123 275.009C671.441 275.439 673.835 275.03 675.88 273.857C677.924 272.684 679.485 270.822 680.283 268.604C681.081 266.386 681.064 263.957 680.236 261.75L680.271 261.744L674.063 222.508L706.578 212.178L712.105 244.491C710.065 243.285 707.661 242.849 705.327 243.263C702.993 243.677 700.885 244.913 699.384 246.748C697.884 248.582 697.09 250.894 697.147 253.263C697.204 255.632 698.108 257.903 699.695 259.663C701.283 261.424 703.448 262.557 705.799 262.858C708.15 263.159 710.531 262.608 712.51 261.305C714.49 260.002 715.937 258.032 716.589 255.754C717.242 253.475 717.056 251.038 716.067 248.885V248.885Z" fill="#00BFA6"/>
<path id="Vector_29" d="M1008.21 782.92V808.92H1004.21L854.21 810.38C849.04 808.53 843.91 806.58 838.79 804.58H838.67L836.13 774.17L1008.21 782.92Z" fill="#3A3768"/>
<path id="note2" d="M654.066 358.885L654.114 358.876L647.122 318L608.459 330.283L614.244 366.844C612.252 365.584 609.876 365.074 607.543 365.404C605.209 365.734 603.068 366.884 601.504 368.647C599.939 370.41 599.053 372.671 599.002 375.028C598.952 377.385 599.741 379.682 601.229 381.511C602.716 383.339 604.805 384.579 607.123 385.009C609.441 385.439 611.835 385.03 613.88 383.857C615.924 382.684 617.485 380.822 618.283 378.604C619.081 376.386 619.064 373.957 618.236 371.75L618.271 371.744L612.063 332.508L644.578 322.178L650.105 354.491C648.065 353.285 645.661 352.849 643.327 353.263C640.993 353.677 638.885 354.913 637.384 356.748C635.884 358.582 635.09 360.894 635.147 363.263C635.204 365.632 636.108 367.903 637.695 369.663C639.282 371.424 641.448 372.557 643.798 372.858C646.149 373.159 648.53 372.608 650.51 371.305C652.49 370.002 653.937 368.032 654.589 365.754C655.242 363.475 655.056 361.038 654.066 358.885V358.885Z" fill="#00BFA6"/>
<path id="note1" d="M598.915 246.485L598.942 246.481L593.961 215L591.501 215.389L595.82 242.681C594.275 241.705 592.433 241.309 590.624 241.565C588.814 241.821 587.154 242.712 585.941 244.079C584.728 245.446 584.041 247.2 584.002 249.027C583.963 250.855 584.575 252.636 585.728 254.054C586.881 255.471 588.501 256.433 590.298 256.766C592.095 257.099 593.952 256.783 595.537 255.873C597.123 254.963 598.333 253.52 598.951 251.8C599.57 250.08 599.557 248.197 598.915 246.485V246.485Z" fill="#00BFA6"/>
<path id="note3" d="M745.378 297.707C745.382 296.001 744.818 294.342 743.776 292.991C742.733 291.64 741.271 290.675 739.619 290.246C737.968 289.818 736.22 289.951 734.653 290.625C733.085 291.299 731.786 292.475 730.96 293.968C730.135 295.461 729.829 297.186 730.092 298.872C730.354 300.558 731.17 302.109 732.411 303.28C733.652 304.452 735.247 305.177 736.945 305.342C738.643 305.507 740.348 305.102 741.792 304.192L737.473 331.484L739.933 331.873L744.914 300.392L744.887 300.388C745.21 299.531 745.376 298.623 745.378 297.707V297.707Z" fill="#00BFA6"/>
<path id="Vector_30" d="M838.75 804.64H838.63C837.82 804.33 837 804.01 836.2 803.64L833.37 798.57L820.73 775.8L819.41 773.42L815.62 766.61L824.99 738.42L835.81 773.35L836.09 774.24L836.79 782.24L838.75 804.64Z" fill="#3A3768"/>
<path id="Vector_31" d="M819.41 720.36H956.66L1013.53 777.99L836.1 774.2L819.41 720.36Z" fill="#3A3768"/>
<path id="Vector_32" d="M1013.53 777.99V786.33L836.79 782.16L836.1 774.2L1013.53 777.99Z" fill="#3A3768"/>
<path id="Vector_33" opacity="0.1" d="M1013.53 777.99V786.33L836.79 782.16L836.1 774.2L1013.53 777.99Z" fill="black"/>
<path id="Vector_34" d="M617.31 611.66L751.74 643.13L757.18 725.73L598.68 726.35L617.31 611.66Z" fill="#3A3768"/>
<path id="Vector_35" d="M720.06 466.87L623.24 523.16L646.82 593.42L652.18 684.12L722.12 669.16L757.18 597.25L788.45 553.46L759.7 500.44L720.06 466.87Z" fill="#3A3768"/>
<path id="Vector_36" d="M159.23 532.59C159.23 532.59 126.37 464.25 142.85 407.31C149.92 383.471 149.064 357.981 140.41 334.67C136.23 323.636 131.048 313.009 124.93 302.92" stroke="#535461" stroke-width="2" stroke-miterlimit="10"/>
<path id="Vector_37" d="M135.06 266.97C136.5 275.77 124.73 303.89 124.73 303.89C124.73 303.89 104.64 280.97 103.2 272.17C102.511 267.945 103.528 263.619 106.027 260.144C108.527 256.669 112.305 254.33 116.53 253.64C120.755 252.95 125.081 253.967 128.556 256.467C132.031 258.967 134.371 262.745 135.06 266.97V266.97Z" fill="#00BFA6"/>
<path id="Vector_38" d="M169.35 311.42C165.78 319.59 140.62 336.8 140.62 336.8C140.62 336.8 136.2 306.64 139.78 298.47C141.497 294.549 144.702 291.47 148.689 289.912C152.676 288.354 157.119 288.443 161.04 290.16C164.961 291.877 168.04 295.082 169.598 299.069C171.157 303.056 171.067 307.499 169.35 311.42V311.42Z" fill="#00BFA6"/>
<path id="Vector_39" d="M181.8 394.89C174.59 400.13 144.18 402.29 144.18 402.29C144.18 402.29 155.6 374.02 162.81 368.78C166.272 366.26 170.594 365.22 174.823 365.886C179.053 366.553 182.845 368.873 185.365 372.335C187.884 375.797 188.925 380.119 188.258 384.349C187.592 388.579 185.272 392.37 181.81 394.89H181.8Z" fill="#00BFA6"/>
<path id="Vector_40" d="M176.99 460.17C170.77 466.56 141.17 473.81 141.17 473.81C141.17 473.81 147.64 444.03 153.86 437.64C155.339 436.121 157.103 434.909 159.051 434.072C160.999 433.235 163.093 432.79 165.213 432.762C167.333 432.734 169.437 433.124 171.407 433.909C173.376 434.695 175.171 435.861 176.69 437.34C178.209 438.819 179.421 440.583 180.258 442.531C181.095 444.479 181.54 446.573 181.568 448.693C181.596 450.813 181.206 452.918 180.421 454.887C179.635 456.856 178.469 458.651 176.99 460.17V460.17Z" fill="#00BFA6"/>
<path id="Vector_41" d="M107.44 343.95C114.76 349.05 145.2 350.6 145.2 350.6C145.2 350.6 133.2 322.6 125.92 317.47C124.184 316.196 122.211 315.282 120.117 314.782C118.023 314.282 115.849 314.206 113.725 314.558C111.601 314.91 109.569 315.683 107.748 316.832C105.927 317.981 104.354 319.482 103.122 321.248C101.889 323.013 101.023 325.008 100.572 327.113C100.122 329.219 100.097 331.393 100.5 333.508C100.902 335.624 101.723 337.637 102.915 339.43C104.107 341.223 105.646 342.76 107.44 343.95V343.95Z" fill="#00BFA6"/>
<path id="Vector_42" d="M102.79 420.42C111.29 423.1 140.79 415.47 140.79 415.47C140.79 415.47 120.99 392.3 112.48 389.62C108.428 388.446 104.078 388.905 100.36 390.897C96.6412 392.889 93.85 396.257 92.5828 400.281C91.3156 404.305 91.6731 408.664 93.5787 412.428C95.4843 416.191 98.7869 419.06 102.78 420.42H102.79Z" fill="#00BFA6"/>
<path id="Vector_43" d="M108.46 495.26C116.39 499.34 146.76 496.81 146.76 496.81C146.76 496.81 131.15 470.63 123.22 466.55C121.335 465.581 119.278 464.992 117.165 464.818C115.052 464.645 112.926 464.888 110.908 465.536C108.89 466.184 107.019 467.223 105.402 468.593C103.785 469.964 102.454 471.64 101.485 473.525C100.516 475.41 99.9277 477.468 99.7537 479.58C99.5797 481.693 99.8235 483.819 100.471 485.837C101.119 487.855 102.158 489.726 103.529 491.343C104.899 492.96 106.575 494.291 108.46 495.26V495.26Z" fill="#00BFA6"/>
<path id="Vector_44" opacity="0.25" d="M135.06 266.97C136.5 275.77 124.73 303.89 124.73 303.89C124.73 303.89 104.64 280.97 103.2 272.17C102.511 267.945 103.528 263.619 106.027 260.144C108.527 256.669 112.305 254.33 116.53 253.64C120.755 252.95 125.081 253.967 128.556 256.467C132.031 258.967 134.371 262.745 135.06 266.97V266.97Z" fill="black"/>
<path id="Vector_45" opacity="0.25" d="M169.35 311.42C165.78 319.59 140.62 336.8 140.62 336.8C140.62 336.8 136.2 306.64 139.78 298.47C141.497 294.549 144.702 291.47 148.689 289.912C152.676 288.354 157.119 288.443 161.04 290.16C164.961 291.877 168.04 295.082 169.598 299.069C171.157 303.056 171.067 307.499 169.35 311.42Z" fill="black"/>
<path id="Vector_46" opacity="0.25" d="M181.8 394.89C174.59 400.13 144.18 402.29 144.18 402.29C144.18 402.29 155.6 374.02 162.81 368.78C166.272 366.26 170.594 365.22 174.823 365.886C179.053 366.553 182.845 368.873 185.365 372.335C187.884 375.797 188.925 380.119 188.258 384.349C187.592 388.579 185.272 392.37 181.81 394.89H181.8Z" fill="black"/>
<path id="Vector_47" opacity="0.25" d="M176.99 460.17C170.77 466.56 141.17 473.81 141.17 473.81C141.17 473.81 147.64 444.03 153.86 437.64C155.339 436.121 157.103 434.909 159.051 434.072C160.999 433.235 163.093 432.79 165.213 432.762C167.333 432.734 169.437 433.124 171.407 433.909C173.376 434.695 175.171 435.861 176.69 437.34C178.209 438.819 179.421 440.583 180.258 442.531C181.095 444.479 181.54 446.573 181.568 448.693C181.596 450.813 181.206 452.918 180.421 454.887C179.635 456.856 178.469 458.651 176.99 460.17V460.17Z" fill="black"/>
<path id="Vector_48" opacity="0.25" d="M107.44 343.95C114.76 349.05 145.2 350.6 145.2 350.6C145.2 350.6 133.2 322.6 125.92 317.47C124.184 316.196 122.211 315.282 120.117 314.782C118.023 314.282 115.849 314.206 113.725 314.558C111.601 314.91 109.569 315.683 107.748 316.832C105.927 317.981 104.354 319.482 103.122 321.248C101.889 323.013 101.023 325.008 100.572 327.113C100.122 329.219 100.097 331.393 100.5 333.508C100.902 335.624 101.723 337.637 102.915 339.43C104.107 341.223 105.646 342.76 107.44 343.95V343.95Z" fill="black"/>
<path id="Vector_49" opacity="0.25" d="M102.79 420.42C111.29 423.1 140.79 415.47 140.79 415.47C140.79 415.47 120.99 392.3 112.48 389.62C108.428 388.446 104.078 388.905 100.36 390.897C96.6412 392.889 93.85 396.257 92.5828 400.281C91.3156 404.305 91.6731 408.664 93.5787 412.428C95.4843 416.191 98.7869 419.06 102.78 420.42H102.79Z" fill="black"/>
<path id="Vector_50" opacity="0.25" d="M108.46 495.26C116.39 499.34 146.76 496.81 146.76 496.81C146.76 496.81 131.15 470.63 123.22 466.55C121.335 465.581 119.278 464.992 117.165 464.818C115.052 464.645 112.926 464.888 110.908 465.536C108.89 466.184 107.019 467.223 105.402 468.593C103.785 469.964 102.454 471.64 101.485 473.525C100.516 475.41 99.9277 477.468 99.7537 479.58C99.5797 481.693 99.8235 483.819 100.471 485.837C101.119 487.855 102.158 489.726 103.529 491.343C104.899 492.96 106.575 494.291 108.46 495.26V495.26Z" fill="black"/>
<path id="Vector_51" d="M159.38 530.08C159.38 530.08 101.64 480.92 93.6397 422.18C90.4261 397.517 79.2993 374.561 61.9297 356.76C53.642 348.376 44.6043 340.767 34.9297 334.03" stroke="#535461" stroke-width="2" stroke-miterlimit="10"/>
<path id="Vector_52" d="M29.6499 297.04C34.5299 304.5 35.1599 334.98 35.1599 334.98C35.1599 334.98 7.50994 322.17 2.62994 314.71C1.40047 312.938 0.538487 310.938 0.0949068 308.828C-0.348673 306.718 -0.364861 304.54 0.047307 302.423C0.459475 300.306 1.29164 298.294 2.49464 296.504C3.69765 294.714 5.24711 293.184 7.0515 292.003C8.85588 290.822 10.8786 290.015 13.0002 289.629C15.1218 289.243 17.2993 289.286 19.404 289.755C21.5087 290.225 23.498 291.111 25.2544 292.363C27.0107 293.614 28.4985 295.204 29.6299 297.04H29.6499Z" fill="#00BFA6"/>
<path id="Vector_53" d="M79.01 323.77C79.01 332.69 63.01 358.61 63.01 358.61C63.01 358.61 46.75 332.83 46.71 323.92C46.6473 321.767 47.016 319.623 47.7944 317.614C48.5728 315.606 49.7451 313.773 51.2423 312.225C52.7396 310.676 54.5315 309.443 56.5126 308.597C58.4938 307.751 60.6241 307.31 62.7781 307.3C64.9322 307.29 67.0664 307.711 69.0553 308.539C71.0442 309.366 72.8475 310.583 74.3591 312.117C75.8707 313.652 77.06 315.474 77.857 317.475C78.654 319.476 79.0426 321.616 79 323.77H79.01Z" fill="#00BFA6"/>
<path id="Vector_54" d="M124.21 395.05C119.74 402.76 92.8198 417.05 92.8198 417.05C92.8198 417.05 91.8198 386.59 96.2698 378.87C98.4154 375.165 101.945 372.464 106.082 371.361C110.219 370.259 114.625 370.844 118.33 372.99C122.035 375.136 124.736 378.665 125.839 382.802C126.941 386.939 126.355 391.345 124.21 395.05V395.05Z" fill="#00BFA6"/>
<path id="Vector_55" d="M146.27 456.68C143.17 465.03 119.05 483.68 119.05 483.68C119.05 483.68 112.93 453.81 115.99 445.42C117.53 441.474 120.559 438.291 124.423 436.557C128.288 434.823 132.679 434.676 136.651 436.149C140.622 437.622 143.856 440.596 145.656 444.431C147.455 448.266 147.676 452.654 146.27 456.65V456.68Z" fill="#00BFA6"/>
<path id="Vector_56" d="M35.59 378.61C44.35 380.31 72.8 369.39 72.8 369.39C72.8 369.39 50.5 348.61 41.75 346.91C37.5868 346.191 33.3075 347.132 29.8299 349.531C26.3523 351.93 23.9533 355.596 23.1474 359.744C22.3415 363.891 23.1929 368.189 25.5189 371.716C27.845 375.243 31.4605 377.718 35.59 378.61V378.61Z" fill="#00BFA6"/>
<path id="Vector_57" d="M62.3001 450.35C71.1601 449.35 95.0501 430.43 95.0501 430.43C95.0501 430.43 67.5601 417.27 58.7001 418.27C56.5937 418.506 54.5545 419.155 52.6989 420.18C50.8433 421.204 49.2076 422.584 47.8853 424.241C45.2148 427.586 43.9827 431.856 44.4601 436.11C44.6965 438.216 45.3454 440.256 46.3699 442.111C47.3944 443.967 48.7743 445.603 50.4309 446.925C53.7766 449.595 58.046 450.827 62.3001 450.35V450.35Z" fill="#00BFA6"/>
<path id="Vector_58" d="M97.83 516.53C106.73 517.04 133.48 502.42 133.48 502.42C133.48 502.42 108.6 484.81 99.7001 484.29C95.4731 484.125 91.3502 485.625 88.2176 488.468C85.0851 491.311 83.193 495.269 82.948 499.493C82.7031 503.716 84.1248 507.866 86.9077 511.052C89.6906 514.238 93.6124 516.205 97.83 516.53Z" fill="#00BFA6"/>
<path id="Vector_59" d="M670.93 712.05V754.71L660 753.03C648.9 751.32 637.73 749.62 626.54 748.16L625.27 727.58L625.17 725.73L623.73 702.42L666.54 711.13L667.78 711.38L670.93 712.05Z" fill="#3A3768"/>
<path id="Vector_60" opacity="0.1" d="M670.93 712.05V754.71L660 753.03C648.9 751.32 637.73 749.62 626.54 748.16L625.27 727.58L625.17 725.73L623.73 702.42L666.54 711.13L667.78 711.38L670.93 712.05Z" fill="black"/>
<path id="Vector_61" d="M618.12 708.04L605.29 725.73L603.93 727.58L601.68 730.69L591.53 744.69C569.53 743.34 547.53 743.92 525.95 748.26C509.55 751.56 493.57 756.98 477.79 763.26C471.23 752.99 461.14 740.48 446.72 730.71C445.15 729.64 443.52 728.61 441.84 727.6C440.77 726.97 439.69 726.35 438.58 725.75C431.758 722.059 424.497 719.243 416.97 717.37L618.12 708.04Z" fill="#3A3768"/>
<path id="Vector_62" d="M106.02 686.42L130.49 651.55L132.63 648.55L133.91 646.72L145.09 630.78H144.74C140.74 630.6 103.99 629.11 64.46 628.07C68.46 634.53 72.5466 640.927 76.72 647.26L77.95 649.1L80.03 652.18C86.74 662.05 93.78 671.68 101.32 680.88L106.02 686.42Z" fill="#3A3768"/>
<path id="Vector_63" d="M720.56 466.86L709.73 473.76L685.38 489.29L646.17 514.29L643.27 516.13L644.2 545.06L471.93 553.42H281.98L230.74 540.61L229.67 540.34L228.6 540.07L218.47 537.53L173.93 526.42L23.21 508.87C24.1214 504.432 25.2697 500.045 26.65 495.73C26.86 495.1 27.05 494.49 27.27 493.87C29.6116 486.976 32.37 480.23 35.53 473.67C114.92 468.1 206.35 467.08 230.34 466.91L236.34 466.86H720.56Z" fill="#3A3768"/>
<path id="Vector_64" opacity="0.1" d="M618.13 708.04L416.99 717.34C427.62 720 437.695 724.52 446.75 730.69H601.75L618.13 708.04Z" fill="black"/>
<path id="Vector_65" opacity="0.1" d="M145.09 630.75L133.93 646.69L132.65 648.52L130.51 651.52H129.28H126.55L80.0499 652.08L77.9299 649.06L76.6999 647.22C72.5133 640.9 68.4266 634.503 64.4399 628.03C103.97 629.03 140.75 630.56 144.72 630.74L145.09 630.75Z" fill="black"/>
<path id="Vector_66" d="M666.54 516.21V727.58H406.75L403.03 692.2C403.03 692.2 371.89 690.4 336.03 684.58C333.97 684.23 331.89 683.89 329.79 683.52C321.25 682.04 312.53 680.33 303.98 678.35L302.27 677.95C299.07 677.203 295.907 676.413 292.78 675.58C289.71 674.78 286.69 673.92 283.73 673.04C279.52 671.77 275.45 670.44 271.54 669.04C258.01 664.14 246.54 658.27 239.13 651.25L233.6 651.11L171.79 649.55H170.67H170.32H169.2L132.63 648.61L129.26 648.53L77.99 649.15L76.76 647.31C72.5734 640.99 68.4867 634.593 64.5 628.12C58.36 618.19 52.4 608.12 46.5 598.12C36.41 581.12 26.13 563.56 22.65 544.12C20.6264 532.476 20.8436 520.553 23.29 508.99C24.2015 504.552 25.3498 500.165 26.73 495.85H230.76L232 496.22L238.77 498.22L239.84 498.54L240.91 498.86C259.36 504.36 297.32 515.33 307.08 515.33H324.18L412.72 515.55L494.63 515.78C553.95 515.92 612.11 516.08 643.24 516.16L666.54 516.21Z" fill="#3A3768"/>
<path id="Vector_67" opacity="0.1" d="M666.54 514.36V725.73H406.75L403.03 690.35C403.03 690.35 372.03 688.55 336.25 682.75C335.06 682.54 333.85 682.35 332.64 682.15C323.78 680.64 314.64 678.9 305.74 676.89L304.51 676.61L303.7 676.42L301.53 675.9C298.59 675.22 295.67 674.49 292.79 673.72C289.63 672.893 286.523 672.017 283.47 671.09C279.2 669.82 275.07 668.45 271.11 667.01C257.77 662.14 246.47 656.32 239.11 649.38L236.61 649.31L173.37 647.71H172.27H171.93H170.82L133.92 646.71L130.82 646.63H129.27L76.73 647.27C72.5433 640.95 68.4567 634.553 64.47 628.08C58.33 618.15 52.37 608.08 46.47 598.08C36.38 581.08 26.1 563.52 22.62 544.08C20.5963 532.436 20.8135 520.513 23.26 508.95C24.1715 504.512 25.3198 500.126 26.7 495.81C26.91 495.18 27.1 494.57 27.32 493.95H230.76L232.2 494.4C233.63 494.83 236.05 495.57 239.2 496.5L240.26 496.82C240.6 496.92 240.95 497.04 241.32 497.14C259.93 502.61 297.42 513.42 307.11 513.42H325.11L414.63 513.65L496.32 513.86L646.15 514.26L666.54 514.36Z" fill="black"/>
<path id="Vector_68" opacity="0.1" d="M666.54 516.21V727.58H406.75L403.03 692.2C403.03 692.2 371.89 690.4 336.03 684.58C333.97 684.23 331.89 683.89 329.79 683.52C321.25 682.04 312.53 680.33 303.98 678.35L302.27 677.95C299.07 677.203 295.907 676.413 292.78 675.58C289.71 674.78 286.69 673.92 283.73 673.04C279.52 671.77 275.45 670.44 271.54 669.04C258.01 664.14 246.54 658.27 239.13 651.25L233.6 651.11L171.79 649.55H170.67H170.32H169.2L132.63 648.61L129.26 648.53L77.99 649.15L76.76 647.31C72.5734 640.99 68.4867 634.593 64.5 628.12C58.36 618.19 52.4 608.12 46.5 598.12C36.41 581.12 26.13 563.56 22.65 544.12C20.6264 532.476 20.8436 520.553 23.29 508.99C24.2015 504.552 25.3498 500.165 26.73 495.85H230.76L232 496.22L238.77 498.22L239.84 498.54L240.91 498.86C259.36 504.36 297.32 515.33 307.08 515.33H324.18L412.72 515.55L494.63 515.78C553.95 515.92 612.11 516.08 643.24 516.16L666.54 516.21Z" fill="black"/>
<path id="Vector_69" d="M720.56 466.87V500.35L666.55 540.7L643.27 516.15L720.56 466.87Z" fill="#3A3768"/>
<path id="Vector_70" opacity="0.1" d="M720.56 466.87V500.35L666.55 540.7L643.27 516.15L720.56 466.87Z" fill="black"/>
<path id="Vector_71" d="M748.51 503.78L720.56 500.35L666.55 540.7V561.81L748.51 503.78Z" fill="#3A3768"/>
<path id="Vector_72" d="M760.31 466.87V536.98L778.31 556.84L666.55 664.74V561.81L748.51 503.78L720.56 500.35V466.87H760.31Z" fill="#3A3768"/>
<path id="Vector_73" opacity="0.1" d="M760.31 466.87V536.98L778.31 556.84L666.55 664.74V561.81L748.51 503.78L720.56 500.35V466.87H760.31Z" fill="black"/>
<path id="Vector_74" opacity="0.1" d="M767.14 557.46L840.39 553.46L834.8 611.66L749.75 725L752.24 643.13H687.06L767.14 557.46Z" fill="black"/>
<path id="Vector_75" d="M769 557.46L842.25 553.46L836.67 611.66L751.62 725L754.1 643.13H688.93L769 557.46Z" fill="#3A3768"/>
<path id="Vector_76" opacity="0.1" d="M816.8 590.99H779.55L732.37 643.13H755.34L754.84 659.84L816.8 590.99Z" fill="black"/>
<path id="Vector_77" opacity="0.1" d="M814.32 590.99H777.07L729.89 643.13H752.86L752.35 659.84L814.32 590.99Z" fill="black"/>
<path id="Vector_78" d="M815.56 590.99H778.31L731.13 643.13H754.1L753.59 659.84L815.56 590.99Z" fill="#DCE6F2"/>
<path id="Vector_79" opacity="0.1" d="M752.86 723.76L667.79 726.35V663.5L690.17 641.89H755.34L752.86 723.76Z" fill="black"/>
<path id="Vector_80" d="M751.62 725L666.55 727.59V664.74L688.93 643.13H754.1L751.62 725Z" fill="#3A3768"/>
<g id="Group" opacity="0.1">
<path id="Vector_81" opacity="0.1" d="M943.93 432.42C941.15 432.13 938.25 431.04 936.71 428.7C936.56 428.46 936.44 428.21 936.32 427.97C934.86 429.4 931.73 428.16 930.94 426.09C930.08 423.84 930.83 421.36 930.94 418.97C931 417.043 930.641 415.126 929.888 413.351C929.136 411.577 928.007 409.986 926.58 408.69C924.76 407.04 922.23 405.85 919.78 406.37C917.78 406.8 916.18 408.29 914.43 409.37C912.68 410.45 910.24 411.08 908.63 409.81C906.57 408.16 907.53 404.98 907.17 402.41C906.88 400.3 905.59 398.46 904.46 396.63C901.257 391.446 899.068 385.701 898.01 379.7C897.32 375.76 897.01 371.41 894.11 368.55C892.31 366.75 889.79 365.84 887.36 365C882.84 363.42 878.36 361.57 873.8 360.11C869.94 358.87 865.8 358.8 862.02 357.2C858.24 355.6 854.82 352.2 854.4 348.2C854.234 345.894 854.828 343.597 856.09 341.66C856.391 341.165 856.726 340.691 857.09 340.24C855.791 341.277 854.678 342.528 853.8 343.94C852.538 345.873 851.948 348.168 852.12 350.47C852.54 354.52 855.9 357.83 859.73 359.47C863.56 361.11 867.65 361.14 871.52 362.38C876.07 363.84 880.52 365.69 885.07 367.27C887.5 368.12 890.07 369.02 891.82 370.82C894.69 373.69 895.04 378.04 895.73 381.98C896.783 387.979 898.973 393.722 902.18 398.9C903.31 400.73 904.59 402.57 904.89 404.69C905.25 407.26 904.28 410.44 906.35 412.08C907.95 413.36 910.35 412.73 912.15 411.65C913.95 410.57 915.47 409.07 917.5 408.65C919.94 408.13 922.5 409.32 924.3 410.98C925.726 412.277 926.854 413.868 927.607 415.642C928.359 417.417 928.719 419.333 928.66 421.26C928.56 423.65 927.82 426.13 928.66 428.37C929.45 430.44 932.57 431.69 934.04 430.25C934.15 430.503 934.281 430.748 934.43 430.98C935.96 433.32 938.86 434.41 941.64 434.7C943.027 434.922 944.449 434.735 945.73 434.16C946.651 433.663 947.392 432.89 947.85 431.95C946.609 432.454 945.255 432.616 943.93 432.42Z" fill="black"/>
<path id="Vector_82" opacity="0.1" d="M943.01 410.42L943.58 410.82C943.912 410.467 944.213 410.085 944.48 409.68C944.019 409.982 943.526 410.23 943.01 410.42Z" fill="black"/>
<path id="Vector_83" d="M927.12 468.2C927.12 468.2 974.12 498.93 957.41 527.35C940.7 555.77 927.12 564.81 927.12 564.81C927.12 564.81 871.73 535.29 864.93 536.05C858.13 536.81 888.93 481.58 888.93 481.58L927.12 468.2Z" fill="#DCE6F2"/>
<path id="Vector_84" opacity="0.1" d="M926.73 564.49C926.13 565.01 925.502 565.497 924.85 565.95C924.85 565.95 871.85 537.7 863.14 537.19C870.01 529.62 876.66 523.19 876.66 523.19L926.73 564.49Z" fill="black"/>
<path id="Vector_85" d="M948.73 426.42C948.571 423.58 947.76 420.815 946.36 418.339C944.961 415.863 943.011 413.742 940.66 412.14C942.393 411.46 943.834 410.197 944.736 408.569C945.637 406.941 945.943 405.049 945.6 403.22C945.23 404.46 943.75 404.93 942.49 405.22C941.75 405.39 941.1 405.51 940.49 405.61C942.035 402.673 943.307 399.6 944.29 396.43C946.15 389.68 945.16 382.5 943.58 375.68C941.46 366.47 937.96 357 930.46 351C927.051 348.506 923.359 346.425 919.46 344.8C915.949 343.016 912.263 341.598 908.46 340.57C904.6 339.67 900.6 339.57 896.66 339.05C889.02 338.05 881.66 335.44 873.93 335.05C866.2 334.66 857.65 336.95 853.69 343.37C852.436 345.31 851.846 347.605 852.01 349.91C852.43 353.96 855.79 357.27 859.62 358.91C863.45 360.55 867.54 360.58 871.41 361.82C875.96 363.28 880.41 365.13 884.96 366.71C887.39 367.55 889.91 368.46 891.71 370.26C894.58 373.12 894.93 377.47 895.62 381.41C896.674 387.412 898.863 393.158 902.07 398.34C903.2 400.17 904.49 402.01 904.78 404.12C905.14 406.69 904.17 409.87 906.24 411.52C907.85 412.79 910.24 412.16 912.04 411.08C913.84 410 915.36 408.51 917.39 408.08C919.83 407.56 922.39 408.75 924.19 410.4C925.615 411.698 926.742 413.289 927.495 415.063C928.247 416.837 928.607 418.754 928.55 420.68C928.45 423.07 927.71 425.55 928.55 427.8C929.34 429.87 932.47 431.11 933.93 429.68C934.045 429.931 934.175 430.175 934.32 430.41C935.85 432.75 938.75 433.84 941.54 434.12C942.923 434.345 944.341 434.161 945.62 433.59C948.11 432.29 948.86 429.16 948.73 426.42Z" fill="#FFDFCF"/>
<path id="Vector_86" opacity="0.1" d="M223.79 628.94C223.79 628.94 238.6 635.76 242.38 628.94C246.16 622.12 223.79 628.94 223.79 628.94Z" fill="black"/>
<path id="Vector_87" opacity="0.1" d="M765.57 735.47C766.33 736.61 769.36 749.47 783.77 757.08L765.57 735.47Z" fill="black"/>
<path id="Vector_88" opacity="0.1" d="M798.18 746.28C798.18 746.28 797.42 761.28 808.42 765.04C819.42 768.8 798.18 746.28 798.18 746.28Z" fill="black"/>
<path id="Vector_89" opacity="0.1" d="M442.93 553.11C442.93 553.11 412.6 558.42 412.22 563.73C411.84 569.04 442.93 553.11 442.93 553.11Z" fill="black"/>
<path id="Vector_90" opacity="0.1" d="M952.86 698.7C952.86 698.7 984.71 736.99 982.86 744.57C981.01 752.15 952.86 698.7 952.86 698.7Z" fill="black"/>
<path id="Vector_91" opacity="0.1" d="M899.03 613.96C899.03 613.96 930.12 621.73 930.12 626.28L899.03 613.96Z" fill="black"/>
<path id="Vector_92" opacity="0.1" d="M903.58 597.42C903.58 597.42 924.81 596.42 925.58 600.36L903.58 597.42Z" fill="black"/>
<path id="Vector_93" opacity="0.1" d="M950.8 646.36C950.8 646.36 990.19 666.01 984.71 678.75L950.8 646.36Z" fill="black"/>
<path id="Vector_94" opacity="0.1" d="M946.8 613.96C946.8 613.96 1014.28 667.96 1009.73 677.84C1005.18 687.72 946.8 613.96 946.8 613.96Z" fill="black"/>
<path id="Vector_95" opacity="0.1" d="M1015.47 705.26C1015.05 705.129 1014.67 704.916 1014.34 704.635C1014 704.353 1013.73 704.008 1013.53 703.62C1010.87 698.32 961.58 690.73 961.58 690.73L950.93 671.02C950.93 671.02 925.15 672.91 920.6 668.02C916.05 663.13 891.4 662.33 891.6 660.82C891.645 660.066 891.621 659.31 891.53 658.56H891.6L898.97 652.87C898.97 652.87 1000.97 637.7 1013.47 692.3C1014.49 696.559 1015.16 700.893 1015.47 705.26V705.26Z" fill="black"/>
<path id="Vector_96" opacity="0.1" d="M229.1 603.15C229.1 603.15 256.4 593.68 255.64 598.98C254.88 604.28 229.1 603.15 229.1 603.15Z" fill="black"/>
<path id="Vector_97" opacity="0.05" d="M891.65 620.12L798.94 575.12C798.94 575.12 766.33 610.74 761.02 588.42C755.71 566.1 777.71 550.88 777.71 550.88L935.05 587.66L891.65 620.12Z" fill="black"/>
<path id="Vector_98" opacity="0.1" d="M751.62 725L666.55 727.59V664.74L688.93 643.13H754.1L751.62 725Z" fill="black"/>
</g>
<path id="Vector_99" opacity="0.1" d="M762.36 214.75C762.36 214.75 789.55 239.21 768.3 254.1C768.3 254.1 765.68 257.88 761.3 256.4C761.3 256.4 762.61 255.02 759.57 252.85C758.489 252.078 757.508 251.174 756.65 250.16C755.471 248.802 754.768 247.095 754.65 245.3V245.3C754.65 245.3 750.47 235.02 759.65 220.4C759.65 220.4 760.18 215.73 760.93 215.15L763.38 221.39C763.38 221.39 758.74 223.01 757.27 226.78C757.27 226.78 763.09 221.33 763.79 222.3C763.93 222.5 764.94 225.66 764.94 225.66C764.94 225.66 756.93 228.51 754.82 234.42C754.82 234.42 760.89 226.99 765.36 226.87L766.6 231.74C766.6 231.74 757.94 234.33 755.3 240.96C755.3 240.96 761.91 233.41 766.8 232.82L767.38 237.77C767.38 237.77 758.97 240.47 756.82 245.99C756.82 245.99 765.34 238.04 767.43 238.91C767.43 238.91 767.69 243.49 767.17 244.74C767.17 244.74 761.17 246.81 760.17 250.13C760.17 250.13 766.43 245.42 767.05 246.01C767.05 246.01 765.79 252.01 763.53 254.78C765.734 252.374 767.272 249.433 767.99 246.25C769.109 247.919 769.714 249.88 769.73 251.89C769.73 251.89 771.95 248.96 768.27 244.78C768.27 244.78 769.07 240.03 768.7 239.32C768.7 239.32 772.91 242.93 774.21 246.32C774.21 246.32 774.58 241.81 768.6 237.96L768.13 232.96C768.13 232.96 773.95 237.44 775.33 240.41C775.33 240.41 775 235.75 767.91 231.71L766.74 226.92C766.74 226.92 772.05 230.41 774.3 233.38C774.3 233.38 773.06 229.12 766.36 225.57L765.21 222.46C765.21 222.46 769.03 225.07 770.07 225.93C771.11 226.79 771.41 226.57 771.41 226.57C769.73 224.181 767.422 222.305 764.74 221.15C764.74 221.15 761.99 214.95 762.36 214.75Z" fill="#00BFA6"/>
<path id="Vector_100" opacity="0.1" d="M773.02 597.25L808.92 598.78" stroke="black" stroke-miterlimit="10"/>
<path id="Vector_101" opacity="0.1" d="M767.18 603.66L803.08 605.19" stroke="black" stroke-miterlimit="10"/>
<path id="Vector_102" opacity="0.1" d="M761.34 610.06L797.24 611.59" stroke="black" stroke-miterlimit="10"/>
<path id="Vector_103" opacity="0.1" d="M755.49 616.47L791.39 618" stroke="black" stroke-miterlimit="10"/>
<path id="Vector_104" opacity="0.1" d="M749.65 622.87L785.55 624.41" stroke="black" stroke-miterlimit="10"/>
<path id="Vector_105" opacity="0.1" d="M743.81 629.28L779.71 630.81" stroke="black" stroke-miterlimit="10"/>
<path id="Vector_106" opacity="0.1" d="M737.96 635.69L773.86 637.22" stroke="black" stroke-miterlimit="10"/>
<path id="Vector_107" opacity="0.1" d="M732.12 642.09L768.02 643.62" stroke="black" stroke-miterlimit="10"/>
</g>
</svg>
