<svg width="1176" height="52" viewBox="0 0 1176 52" fill="none" xmlns="http://www.w3.org/2000/svg">
<g id="Text">
<path id="Hi, I&#226;&#128;&#153;m Myroslava Skala" d="M32.464 13.024C32.968 13.024 33.352 13.108 33.616 13.276C33.904 13.444 34.048 13.66 34.048 13.924C34.048 14.044 34.012 14.2 33.94 14.392C33.868 14.56 33.76 14.716 33.616 14.86C33.496 14.98 33.376 15.076 33.256 15.148C33.16 15.196 33.088 15.244 33.04 15.292C32.656 15.508 32.344 15.748 32.104 16.012C31.864 16.276 31.66 16.684 31.492 17.236L27.064 32.752C26.968 33.064 26.92 33.364 26.92 33.652C26.92 33.94 26.956 34.168 27.028 34.336C27.124 34.504 27.256 34.72 27.424 34.984C27.448 35.008 27.508 35.104 27.604 35.272C27.724 35.416 27.784 35.572 27.784 35.74C27.784 35.788 27.76 35.908 27.712 36.1C27.592 36.436 27.364 36.676 27.028 36.82C26.692 36.94 26.188 37 25.516 37H17.056C16.552 37 16.156 36.916 15.868 36.748C15.604 36.58 15.472 36.352 15.472 36.064C15.472 35.92 15.508 35.764 15.58 35.596C15.676 35.404 15.808 35.248 15.976 35.128C16.144 34.984 16.312 34.864 16.48 34.768C16.864 34.552 17.176 34.312 17.416 34.048C17.656 33.76 17.86 33.328 18.028 32.752L19.756 26.74H13.384L11.656 32.752C11.56 33.064 11.512 33.364 11.512 33.652C11.512 33.94 11.548 34.168 11.62 34.336C11.716 34.504 11.848 34.72 12.016 34.984C12.04 35.008 12.1 35.104 12.196 35.272C12.316 35.416 12.376 35.572 12.376 35.74C12.376 35.788 12.352 35.908 12.304 36.1C12.184 36.436 11.956 36.676 11.62 36.82C11.284 36.94 10.78 37 10.108 37H1.648C1.144 37 0.76 36.916 0.496 36.748C0.208 36.58 0.064 36.352 0.064 36.064C0.064 35.92 0.1 35.764 0.172 35.596C0.268 35.404 0.4 35.248 0.568 35.128C0.736 34.984 0.904 34.864 1.072 34.768C1.456 34.552 1.768 34.312 2.008 34.048C2.248 33.76 2.452 33.328 2.62 32.752L7.048 17.236C7.144 16.924 7.192 16.624 7.192 16.336C7.192 16.072 7.144 15.856 7.048 15.688C6.976 15.496 6.868 15.28 6.724 15.04C6.628 14.92 6.544 14.8 6.472 14.68C6.4 14.536 6.364 14.392 6.364 14.248C6.364 14.2 6.388 14.08 6.436 13.888C6.532 13.576 6.748 13.36 7.084 13.24C7.42 13.096 7.924 13.024 8.596 13.024H17.056C17.56 13.024 17.944 13.108 18.208 13.276C18.496 13.444 18.64 13.66 18.64 13.924C18.64 14.044 18.604 14.2 18.532 14.392C18.46 14.56 18.352 14.716 18.208 14.86C18.088 14.98 17.968 15.076 17.848 15.148C17.752 15.196 17.68 15.244 17.632 15.292C17.248 15.508 16.936 15.748 16.696 16.012C16.456 16.276 16.252 16.684 16.084 17.236L14.392 23.14H20.764L22.456 17.236C22.552 16.924 22.6 16.624 22.6 16.336C22.6 16.072 22.552 15.856 22.456 15.688C22.384 15.496 22.276 15.28 22.132 15.04C22.036 14.92 21.952 14.8 21.88 14.68C21.808 14.536 21.772 14.392 21.772 14.248C21.772 14.2 21.796 14.08 21.844 13.888C21.94 13.576 22.156 13.36 22.492 13.24C22.828 13.096 23.332 13.024 24.004 13.024H32.464ZM40.4914 17.956C41.8834 17.956 42.9034 18.22 43.5514 18.748C44.1994 19.276 44.5234 19.996 44.5234 20.908C44.5234 21.46 44.4394 21.988 44.2714 22.492L40.9594 33.256C40.8874 33.544 40.8514 33.796 40.8514 34.012C40.8514 34.324 40.9114 34.576 41.0314 34.768C41.1514 34.936 41.3194 35.104 41.5354 35.272C41.7034 35.44 41.8234 35.584 41.8954 35.704C41.9674 35.8 41.9794 35.932 41.9314 36.1C41.8114 36.412 41.5714 36.64 41.2114 36.784C40.8514 36.928 40.2994 37 39.5554 37H31.3474C30.7234 37 30.2674 36.904 29.9794 36.712C29.6914 36.496 29.5954 36.22 29.6914 35.884C29.7874 35.596 30.0394 35.344 30.4474 35.128C30.8074 34.936 31.1074 34.708 31.3474 34.444C31.5874 34.18 31.7914 33.76 31.9594 33.184L35.0914 22.78C35.1634 22.564 35.1994 22.384 35.1994 22.24C35.1994 21.976 35.1394 21.772 35.0194 21.628C34.8994 21.46 34.7194 21.292 34.4794 21.124C34.2394 20.932 34.0714 20.764 33.9754 20.62C33.8794 20.476 33.8674 20.284 33.9394 20.044C34.0834 19.492 34.8394 19.012 36.2074 18.604C37.5754 18.172 39.0034 17.956 40.4914 17.956ZM42.9034 10C43.8394 10 44.6194 10.312 45.2434 10.936C45.8674 11.536 46.1794 12.28 46.1794 13.168C46.1794 13.792 46.0114 14.404 45.6754 15.004C45.3634 15.604 44.9074 16.096 44.3074 16.48C43.7314 16.84 43.0834 17.02 42.3634 17.02C41.4514 17.02 40.6834 16.72 40.0594 16.12C39.4594 15.496 39.1474 14.728 39.1234 13.816C39.1234 13.216 39.2794 12.628 39.5914 12.052C39.9034 11.452 40.3474 10.96 40.9234 10.576C41.4994 10.192 42.1594 10 42.9034 10ZM47.663 29.728C48.767 29.728 49.691 30.112 50.435 30.88C51.179 31.648 51.551 32.668 51.551 33.94C51.551 35.452 51.107 36.868 50.219 38.188C49.355 39.508 48.299 40.564 47.051 41.356C45.803 42.148 44.663 42.544 43.631 42.544C42.839 42.544 42.443 42.268 42.443 41.716C42.443 41.404 42.575 41.104 42.839 40.816C43.103 40.528 43.487 40.192 43.991 39.808C44.519 39.4 44.927 39.028 45.215 38.692C45.503 38.38 45.647 38.044 45.647 37.684C45.647 37.396 45.455 37.012 45.071 36.532C44.711 36.052 44.435 35.62 44.243 35.236C44.075 34.828 43.991 34.336 43.991 33.76C43.991 32.656 44.339 31.708 45.035 30.916C45.755 30.124 46.631 29.728 47.663 29.728ZM77.8746 13.024C78.3786 13.024 78.7626 13.108 79.0266 13.276C79.3146 13.42 79.4586 13.636 79.4586 13.924C79.4586 14.044 79.4226 14.2 79.3506 14.392C79.2786 14.56 79.1706 14.716 79.0266 14.86C78.9066 14.98 78.7866 15.076 78.6666 15.148C78.5706 15.196 78.4986 15.244 78.4506 15.292C78.0666 15.508 77.7546 15.748 77.5146 16.012C77.2746 16.276 77.0706 16.684 76.9026 17.236L72.5466 32.752C72.4506 33.064 72.4026 33.364 72.4026 33.652C72.4026 33.94 72.4386 34.18 72.5106 34.372C72.6066 34.564 72.7386 34.768 72.9066 34.984C73.1226 35.296 73.2306 35.548 73.2306 35.74C73.2306 35.788 73.2066 35.908 73.1586 36.1C73.0626 36.436 72.8466 36.676 72.5106 36.82C72.1746 36.94 71.6706 37 70.9986 37H62.5386C62.0346 37 61.6506 36.916 61.3866 36.748C61.0986 36.58 60.9546 36.352 60.9546 36.064C60.9546 35.92 60.9906 35.764 61.0626 35.596C61.1586 35.332 61.3146 35.128 61.5306 34.984C61.7466 34.84 61.8786 34.756 61.9266 34.732C62.3106 34.492 62.6226 34.252 62.8626 34.012C63.1026 33.748 63.3066 33.328 63.4746 32.752L67.8666 17.236C67.9626 16.924 68.0106 16.624 68.0106 16.336C68.0106 16.072 67.9626 15.856 67.8666 15.688C67.7946 15.496 67.6866 15.28 67.5426 15.04C67.3266 14.728 67.2186 14.476 67.2186 14.284C67.2186 14.212 67.2426 14.08 67.2906 13.888C67.3866 13.576 67.5906 13.36 67.9026 13.24C68.2386 13.096 68.7426 13.024 69.4146 13.024H77.8746ZM84.7973 11.98C85.8533 11.98 86.7653 12.376 87.5333 13.168C88.3013 13.96 88.6853 15.004 88.6853 16.3C88.6853 16.804 88.6133 17.344 88.4693 17.92C88.2053 19 87.7253 19.936 87.0293 20.728C86.3573 21.496 85.5773 22.084 84.6893 22.492C83.8013 22.876 82.9373 23.068 82.0973 23.068C81.1133 23.068 80.6213 22.78 80.6213 22.204C80.6213 22.06 80.6333 21.952 80.6573 21.88C80.7293 21.616 80.8733 21.4 81.0893 21.232C81.3053 21.04 81.6413 20.788 82.0973 20.476C82.6253 20.092 83.0093 19.78 83.2493 19.54C83.4893 19.3 83.6093 19.012 83.6093 18.676C83.6093 18.46 83.5373 18.244 83.3933 18.028C83.2733 17.812 83.0693 17.524 82.7813 17.164C82.3973 16.66 82.1093 16.24 81.9173 15.904C81.7253 15.568 81.6293 15.184 81.6293 14.752C81.6293 14.488 81.6653 14.236 81.7373 13.996C81.9293 13.348 82.2893 12.856 82.8173 12.52C83.3453 12.16 84.0053 11.98 84.7973 11.98ZM121.615 32.032C121.567 32.128 121.543 32.272 121.543 32.464C121.543 32.632 121.579 32.764 121.651 32.86C121.747 32.956 121.867 33.004 122.011 33.004C122.299 33.004 122.539 32.884 122.731 32.644C122.947 32.38 123.091 32.248 123.163 32.248C123.283 32.248 123.379 32.332 123.451 32.5C123.523 32.644 123.559 32.824 123.559 33.04C123.583 33.736 123.355 34.42 122.875 35.092C122.395 35.74 121.687 36.28 120.751 36.712C119.839 37.12 118.735 37.324 117.439 37.324C115.855 37.324 114.595 36.964 113.659 36.244C112.723 35.5 112.243 34.516 112.219 33.292C112.219 32.404 112.435 31.408 112.867 30.304L114.847 25.12C114.967 24.808 115.027 24.556 115.027 24.364C115.027 24.052 114.919 23.812 114.703 23.644C114.511 23.452 114.271 23.356 113.983 23.356C113.575 23.356 113.155 23.536 112.723 23.896C112.291 24.256 111.907 24.82 111.571 25.588L109.591 32.032C109.543 32.128 109.519 32.272 109.519 32.464C109.519 32.632 109.555 32.764 109.627 32.86C109.723 32.956 109.843 33.004 109.987 33.004C110.275 33.004 110.515 32.884 110.707 32.644C110.923 32.38 111.067 32.248 111.139 32.248C111.259 32.248 111.355 32.332 111.427 32.5C111.499 32.644 111.535 32.824 111.535 33.04C111.559 33.736 111.331 34.42 110.851 35.092C110.371 35.74 109.663 36.28 108.727 36.712C107.815 37.12 106.711 37.324 105.415 37.324C103.831 37.324 102.571 36.964 101.635 36.244C100.699 35.5 100.219 34.516 100.195 33.292C100.195 32.404 100.411 31.408 100.843 30.304L102.823 25.12C102.943 24.808 103.003 24.556 103.003 24.364C103.003 24.052 102.895 23.812 102.679 23.644C102.487 23.452 102.247 23.356 101.959 23.356C101.551 23.356 101.131 23.536 100.699 23.896C100.267 24.232 99.9069 24.784 99.6189 25.552L97.2429 33.256C97.1469 33.52 97.0989 33.772 97.0989 34.012C97.0989 34.3 97.1589 34.54 97.2789 34.732C97.3989 34.9 97.5669 35.08 97.7829 35.272C97.9509 35.416 98.0709 35.548 98.1429 35.668C98.2149 35.788 98.2269 35.932 98.1789 36.1C98.0829 36.412 97.8549 36.64 97.4949 36.784C97.1349 36.928 96.5709 37 95.8029 37H87.5949C86.9709 37 86.5269 36.904 86.2629 36.712C85.9749 36.496 85.8669 36.22 85.9389 35.884C86.0349 35.596 86.2869 35.344 86.6949 35.128C87.0549 34.936 87.3549 34.708 87.5949 34.444C87.8349 34.18 88.0389 33.76 88.2069 33.184L91.4109 22.78C91.4589 22.66 91.4829 22.492 91.4829 22.276C91.4829 22.012 91.4229 21.808 91.3029 21.664C91.2069 21.52 91.0389 21.34 90.7989 21.124C90.5589 20.932 90.3909 20.764 90.2949 20.62C90.1989 20.476 90.1869 20.284 90.2589 20.044C90.4029 19.492 91.1589 19.012 92.5269 18.604C93.8949 18.172 95.3229 17.956 96.8109 17.956C97.9869 17.956 98.9109 18.28 99.5829 18.928C100.279 19.576 100.615 20.464 100.591 21.592C101.575 20.224 102.607 19.276 103.687 18.748C104.791 18.22 105.979 17.956 107.251 17.956C108.643 17.956 109.771 18.364 110.635 19.18C111.523 19.972 112.015 21.016 112.111 22.312C113.143 20.68 114.247 19.552 115.423 18.928C116.599 18.28 117.883 17.956 119.275 17.956C120.739 17.956 121.915 18.4 122.803 19.288C123.715 20.176 124.171 21.328 124.171 22.744C124.171 23.488 124.051 24.22 123.811 24.94L121.615 32.032ZM170.973 13.024C171.477 13.024 171.861 13.108 172.125 13.276C172.413 13.42 172.557 13.636 172.557 13.924C172.557 14.044 172.521 14.2 172.449 14.392C172.377 14.608 172.269 14.776 172.125 14.896C172.005 14.992 171.813 15.124 171.549 15.292C171.165 15.508 170.853 15.748 170.613 16.012C170.397 16.276 170.205 16.684 170.037 17.236L165.645 32.716C165.549 33.028 165.501 33.328 165.501 33.616C165.501 33.88 165.537 34.108 165.609 34.3C165.705 34.468 165.825 34.672 165.969 34.912C166.065 35.032 166.149 35.164 166.221 35.308C166.293 35.428 166.329 35.56 166.329 35.704C166.329 35.752 166.305 35.872 166.257 36.064C166.161 36.376 165.933 36.604 165.573 36.748C165.237 36.892 164.745 36.964 164.097 36.964H155.637C155.133 36.964 154.737 36.88 154.449 36.712C154.185 36.544 154.053 36.316 154.053 36.028C154.053 35.884 154.089 35.728 154.161 35.56C154.233 35.392 154.329 35.248 154.449 35.128C154.593 34.984 154.713 34.888 154.809 34.84C154.929 34.768 155.013 34.708 155.061 34.66C155.445 34.444 155.757 34.204 155.997 33.94C156.237 33.676 156.441 33.268 156.609 32.716L159.345 22.996L150.021 34.552C149.253 35.488 148.629 36.136 148.149 36.496C147.693 36.832 147.165 37 146.565 37C145.989 37 145.533 36.82 145.197 36.46C144.885 36.076 144.597 35.44 144.333 34.552L140.949 23.428L138.285 32.752C138.189 33.064 138.141 33.364 138.141 33.652C138.141 33.94 138.177 34.18 138.249 34.372C138.345 34.564 138.477 34.768 138.645 34.984C138.861 35.296 138.969 35.548 138.969 35.74C138.969 35.788 138.945 35.908 138.897 36.1C138.801 36.436 138.585 36.676 138.249 36.82C137.913 36.94 137.409 37 136.737 37H133.749C133.245 37 132.849 36.916 132.561 36.748C132.297 36.58 132.165 36.352 132.165 36.064C132.165 35.92 132.201 35.764 132.273 35.596C132.369 35.332 132.525 35.128 132.741 34.984C132.957 34.84 133.089 34.756 133.137 34.732C133.521 34.492 133.833 34.252 134.073 34.012C134.313 33.748 134.517 33.328 134.685 32.752L139.077 17.2L138.501 15.292C138.381 14.932 138.321 14.584 138.321 14.248C138.321 13.816 138.453 13.504 138.717 13.312C139.005 13.12 139.437 13.024 140.013 13.024H145.593C146.313 13.024 146.841 13.18 147.177 13.492C147.537 13.804 147.825 14.344 148.041 15.112L151.641 27.064L161.397 14.932C162.021 14.164 162.633 13.66 163.233 13.42C163.833 13.156 164.625 13.024 165.609 13.024H170.973ZM188.654 17.956C189.71 17.956 190.55 18.388 191.174 19.252C191.822 20.092 192.146 21.244 192.146 22.708C192.146 23.98 191.918 25.348 191.462 26.812C190.574 29.764 189.146 32.548 187.178 35.164C185.234 37.78 182.99 39.88 180.446 41.464C177.926 43.048 175.406 43.84 172.886 43.84C171.638 43.84 170.558 43.624 169.646 43.192C168.758 42.76 168.086 42.184 167.63 41.464C167.15 40.744 166.91 39.976 166.91 39.16C166.91 38.8 166.97 38.404 167.09 37.972C167.306 37.3 167.666 36.784 168.17 36.424C168.674 36.064 169.274 35.884 169.97 35.884C171.074 35.884 171.974 36.256 172.67 37C173.39 37.768 173.846 38.812 174.038 40.132C175.574 40.06 176.99 39.4 178.286 38.152C177.062 37.936 176.15 37.528 175.55 36.928C174.974 36.304 174.578 35.344 174.362 34.048L172.922 25.228C172.85 24.772 172.742 24.46 172.598 24.292C172.478 24.1 172.31 24.004 172.094 24.004C171.926 24.004 171.722 24.088 171.482 24.256C171.266 24.424 171.11 24.508 171.014 24.508C170.822 24.508 170.726 24.304 170.726 23.896C170.726 23.56 170.786 23.2 170.906 22.816C171.338 21.448 172.142 20.296 173.318 19.36C174.494 18.4 175.862 17.92 177.422 17.92C178.958 17.92 180.086 18.376 180.806 19.288C181.55 20.2 182.03 21.604 182.246 23.5L183.326 31.42C183.398 32.02 183.614 32.32 183.974 32.32C184.406 32.32 184.91 31.936 185.486 31.168C186.062 30.376 186.626 29.26 187.178 27.82C186.458 27.172 185.906 26.428 185.522 25.588C185.138 24.748 184.946 23.848 184.946 22.888C184.946 22.144 185.042 21.472 185.234 20.872C185.522 19.912 185.966 19.192 186.566 18.712C187.19 18.208 187.886 17.956 188.654 17.956ZM209.574 17.956C210.918 17.956 211.986 18.364 212.778 19.18C213.594 19.996 214.002 21.004 214.002 22.204C214.002 22.66 213.954 23.08 213.858 23.464C213.618 24.448 213.162 25.204 212.49 25.732C211.818 26.26 211.014 26.524 210.078 26.524C209.166 26.524 208.47 26.308 207.99 25.876C207.534 25.444 207.126 24.868 206.766 24.148C206.574 23.74 206.394 23.44 206.226 23.248C206.058 23.056 205.866 22.96 205.65 22.96C205.41 22.96 205.194 23.056 205.002 23.248C204.834 23.44 204.678 23.776 204.534 24.256L201.762 33.256C201.714 33.376 201.69 33.556 201.69 33.796C201.69 34.108 201.774 34.372 201.942 34.588C202.134 34.78 202.386 34.972 202.698 35.164C202.986 35.356 203.178 35.512 203.274 35.632C203.37 35.752 203.406 35.908 203.382 36.1C203.334 36.412 203.154 36.64 202.842 36.784C202.554 36.928 202.05 37 201.33 37H192.114C191.49 37 191.046 36.904 190.782 36.712C190.494 36.496 190.386 36.22 190.458 35.884C190.554 35.596 190.806 35.344 191.214 35.128C191.574 34.936 191.874 34.708 192.114 34.444C192.354 34.18 192.558 33.76 192.726 33.184L195.93 22.78C195.978 22.66 196.002 22.492 196.002 22.276C196.002 22.012 195.942 21.808 195.822 21.664C195.726 21.52 195.558 21.34 195.318 21.124C195.078 20.932 194.91 20.764 194.814 20.62C194.718 20.476 194.706 20.284 194.778 20.044C194.922 19.492 195.678 19.012 197.046 18.604C198.414 18.172 199.842 17.956 201.33 17.956C202.314 17.956 203.13 18.184 203.778 18.64C204.426 19.072 204.846 19.696 205.038 20.512C206.19 18.808 207.702 17.956 209.574 17.956ZM226.678 17.956C229.942 17.956 232.342 18.616 233.878 19.936C235.438 21.256 236.218 22.984 236.218 25.12C236.218 25.84 236.122 26.644 235.93 27.532C235.474 29.5 234.622 31.228 233.374 32.716C232.126 34.18 230.59 35.32 228.766 36.136C226.966 36.928 225.01 37.324 222.898 37.324C219.562 37.324 217.09 36.664 215.482 35.344C213.898 34 213.106 32.224 213.106 30.016C213.106 29.272 213.202 28.444 213.394 27.532C213.85 25.66 214.714 24.004 215.986 22.564C217.282 21.1 218.854 19.972 220.702 19.18C222.574 18.364 224.566 17.956 226.678 17.956ZM226.57 21.16C226.066 21.16 225.526 21.616 224.95 22.528C224.398 23.416 223.738 25.108 222.97 27.604C222.202 30.1 221.818 31.852 221.818 32.86C221.818 33.388 221.902 33.748 222.07 33.94C222.238 34.108 222.466 34.192 222.754 34.192C223.258 34.24 223.774 33.808 224.302 32.896C224.854 31.984 225.538 30.208 226.354 27.568C227.098 25.24 227.47 23.548 227.47 22.492C227.47 21.988 227.386 21.64 227.218 21.448C227.074 21.256 226.858 21.16 226.57 21.16ZM248.215 17.632C250.207 17.632 251.923 17.812 253.363 18.172C254.827 18.532 255.943 19.036 256.711 19.684C257.503 20.332 257.899 21.064 257.899 21.88C257.899 22.72 257.563 23.404 256.891 23.932C256.243 24.46 255.331 24.724 254.155 24.724C252.955 24.724 251.935 24.424 251.095 23.824C250.279 23.224 249.871 22.468 249.871 21.556C249.871 21.244 249.919 20.944 250.015 20.656C249.583 20.536 249.199 20.476 248.863 20.476C248.263 20.476 247.759 20.62 247.351 20.908C246.967 21.196 246.787 21.604 246.811 22.132C246.811 22.756 247.123 23.284 247.747 23.716C248.371 24.148 249.379 24.688 250.771 25.336C251.971 25.864 252.955 26.356 253.723 26.812C254.515 27.244 255.175 27.796 255.703 28.468C256.255 29.14 256.531 29.932 256.531 30.844C256.531 31.036 256.483 31.396 256.387 31.924C256.003 33.532 254.935 34.804 253.183 35.74C251.431 36.676 249.127 37.144 246.271 37.144C243.055 37.144 240.499 36.712 238.603 35.848C236.731 34.984 235.795 33.796 235.795 32.284C235.795 31.252 236.107 30.472 236.731 29.944C237.355 29.416 238.183 29.152 239.215 29.152C240.415 29.152 241.435 29.524 242.275 30.268C243.139 31.012 243.571 31.96 243.571 33.112C243.571 33.424 243.535 33.748 243.463 34.084C244.039 34.228 244.591 34.3 245.119 34.3C245.743 34.3 246.259 34.132 246.667 33.796C247.075 33.46 247.279 32.992 247.279 32.392C247.255 31.84 246.979 31.372 246.451 30.988C245.923 30.58 245.083 30.1 243.931 29.548C242.851 29.044 241.963 28.576 241.267 28.144C240.571 27.688 239.971 27.124 239.467 26.452C238.987 25.78 238.747 24.988 238.747 24.076C238.747 22.108 239.563 20.548 241.195 19.396C242.851 18.22 245.191 17.632 248.215 17.632ZM269.195 10.396C270.587 10.396 271.607 10.66 272.255 11.188C272.927 11.716 273.263 12.436 273.263 13.348C273.263 13.876 273.179 14.392 273.011 14.896L267.359 33.256C267.287 33.544 267.251 33.796 267.251 34.012C267.251 34.324 267.311 34.576 267.431 34.768C267.551 34.936 267.719 35.104 267.935 35.272C268.103 35.44 268.223 35.584 268.295 35.704C268.367 35.8 268.379 35.932 268.331 36.1C268.211 36.412 267.971 36.64 267.611 36.784C267.251 36.928 266.699 37 265.955 37H257.747C257.123 37 256.667 36.904 256.379 36.712C256.091 36.496 255.995 36.22 256.091 35.884C256.187 35.596 256.439 35.344 256.847 35.128C257.207 34.936 257.507 34.708 257.747 34.444C257.987 34.18 258.191 33.76 258.359 33.184L263.831 15.22C263.903 15.004 263.939 14.824 263.939 14.68C263.939 14.416 263.867 14.2 263.723 14.032C263.603 13.864 263.435 13.696 263.219 13.528C262.979 13.336 262.799 13.168 262.679 13.024C262.583 12.88 262.571 12.688 262.643 12.448C262.787 11.896 263.543 11.416 264.911 11.008C266.279 10.6 267.707 10.396 269.195 10.396ZM283.747 17.956C286.507 17.956 288.715 18.472 290.371 19.504C292.027 20.512 292.855 22.06 292.855 24.148C292.855 24.94 292.711 25.84 292.423 26.848L290.947 31.816C290.923 31.912 290.911 32.032 290.911 32.176C290.911 32.56 291.067 32.752 291.379 32.752C291.667 32.752 291.907 32.632 292.099 32.392C292.315 32.128 292.459 31.996 292.531 31.996C292.651 31.996 292.747 32.08 292.819 32.248C292.915 32.416 292.963 32.608 292.963 32.824C292.987 33.472 292.735 34.132 292.207 34.804C291.703 35.476 291.019 36.028 290.155 36.46C289.291 36.892 288.343 37.108 287.311 37.108C286.063 37.108 284.995 36.88 284.107 36.424C283.219 35.968 282.607 35.296 282.271 34.408C281.551 35.272 280.699 35.944 279.715 36.424C278.731 36.88 277.675 37.108 276.547 37.108C275.275 37.108 274.207 36.868 273.343 36.388C272.479 35.884 271.831 35.248 271.399 34.48C270.991 33.688 270.787 32.86 270.787 31.996C270.787 31.612 270.823 31.24 270.895 30.88C271.279 29.224 272.107 27.976 273.379 27.136C274.675 26.296 276.211 25.876 277.987 25.876C279.979 25.876 281.935 26.188 283.855 26.812L284.755 24.436C285.067 23.428 285.223 22.648 285.223 22.096C285.199 21.52 285.007 21.088 284.647 20.8C284.287 20.512 283.735 20.368 282.991 20.368C283.135 20.752 283.207 21.148 283.207 21.556C283.207 22.444 282.871 23.212 282.199 23.86C281.527 24.508 280.567 24.832 279.319 24.832C278.143 24.832 277.219 24.58 276.547 24.076C275.899 23.548 275.575 22.9 275.575 22.132C275.575 20.932 276.247 19.936 277.591 19.144C278.935 18.352 280.987 17.956 283.747 17.956ZM281.731 28.864C281.059 28.864 280.507 29.128 280.075 29.656C279.667 30.16 279.463 30.712 279.463 31.312C279.463 31.696 279.547 32.008 279.715 32.248C279.907 32.488 280.171 32.608 280.507 32.608C280.819 32.608 281.155 32.488 281.515 32.248C281.899 31.984 282.175 31.6 282.343 31.096L283.099 28.972C282.691 28.9 282.235 28.864 281.731 28.864ZM311.314 17.956C312.586 17.956 313.642 18.412 314.482 19.324C315.322 20.236 315.742 21.484 315.742 23.068C315.742 25.204 314.998 27.388 313.51 29.62C312.022 31.852 310.138 33.7 307.858 35.164C305.578 36.604 303.358 37.324 301.198 37.324C299.134 37.324 297.454 36.904 296.158 36.064C294.886 35.224 294.25 34.024 294.25 32.464C294.25 31.888 294.358 31.24 294.574 30.52L296.842 22.78C296.89 22.588 296.914 22.444 296.914 22.348C296.914 22.108 296.854 21.904 296.734 21.736C296.614 21.568 296.446 21.388 296.23 21.196C295.87 20.884 295.69 20.608 295.69 20.368C295.666 20.032 295.87 19.672 296.302 19.288C296.734 18.904 297.334 18.592 298.102 18.352C298.894 18.088 299.782 17.956 300.766 17.956C302.374 17.956 303.622 18.352 304.51 19.144C305.422 19.912 305.878 20.92 305.878 22.168C305.878 22.72 305.782 23.32 305.59 23.968L303.25 31.672C303.178 31.888 303.142 32.068 303.142 32.212C303.142 32.524 303.25 32.764 303.466 32.932C303.682 33.1 303.982 33.184 304.366 33.184C304.894 33.184 305.506 32.956 306.202 32.5C306.922 32.02 307.63 31.348 308.326 30.484C309.022 29.596 309.586 28.552 310.018 27.352C309.058 26.512 308.374 25.684 307.966 24.868C307.582 24.052 307.39 23.212 307.39 22.348C307.39 21.124 307.726 20.092 308.398 19.252C309.07 18.388 310.042 17.956 311.314 17.956ZM328.149 17.956C330.909 17.956 333.117 18.472 334.773 19.504C336.429 20.512 337.257 22.06 337.257 24.148C337.257 24.94 337.113 25.84 336.825 26.848L335.349 31.816C335.325 31.912 335.313 32.032 335.313 32.176C335.313 32.56 335.469 32.752 335.781 32.752C336.069 32.752 336.309 32.632 336.501 32.392C336.717 32.128 336.861 31.996 336.933 31.996C337.053 31.996 337.149 32.08 337.221 32.248C337.317 32.416 337.365 32.608 337.365 32.824C337.389 33.472 337.137 34.132 336.609 34.804C336.105 35.476 335.421 36.028 334.557 36.46C333.693 36.892 332.745 37.108 331.713 37.108C330.465 37.108 329.397 36.88 328.509 36.424C327.621 35.968 327.009 35.296 326.673 34.408C325.953 35.272 325.101 35.944 324.117 36.424C323.133 36.88 322.077 37.108 320.949 37.108C319.677 37.108 318.609 36.868 317.745 36.388C316.881 35.884 316.233 35.248 315.801 34.48C315.393 33.688 315.189 32.86 315.189 31.996C315.189 31.612 315.225 31.24 315.297 30.88C315.681 29.224 316.509 27.976 317.781 27.136C319.077 26.296 320.613 25.876 322.389 25.876C324.381 25.876 326.337 26.188 328.257 26.812L329.157 24.436C329.469 23.428 329.625 22.648 329.625 22.096C329.601 21.52 329.409 21.088 329.049 20.8C328.689 20.512 328.137 20.368 327.393 20.368C327.537 20.752 327.609 21.148 327.609 21.556C327.609 22.444 327.273 23.212 326.601 23.86C325.929 24.508 324.969 24.832 323.721 24.832C322.545 24.832 321.621 24.58 320.949 24.076C320.301 23.548 319.977 22.9 319.977 22.132C319.977 20.932 320.649 19.936 321.993 19.144C323.337 18.352 325.389 17.956 328.149 17.956ZM326.133 28.864C325.461 28.864 324.909 29.128 324.477 29.656C324.069 30.16 323.865 30.712 323.865 31.312C323.865 31.696 323.949 32.008 324.117 32.248C324.309 32.488 324.573 32.608 324.909 32.608C325.221 32.608 325.557 32.488 325.917 32.248C326.301 31.984 326.577 31.6 326.745 31.096L327.501 28.972C327.093 28.9 326.637 28.864 326.133 28.864ZM359.523 12.808C360.867 12.808 362.103 12.976 363.231 13.312C364.383 13.624 365.547 14.128 366.723 14.824L367.551 14.14C368.127 13.684 368.595 13.372 368.955 13.204C369.339 13.036 369.771 12.952 370.251 12.952C370.827 12.952 371.283 13.084 371.619 13.348C371.955 13.588 372.123 13.948 372.123 14.428C372.123 14.62 372.087 14.824 372.015 15.04L370.503 20.008C370.335 20.584 370.119 20.992 369.855 21.232C369.615 21.472 369.243 21.592 368.739 21.592C368.211 21.592 367.743 21.436 367.335 21.124C366.951 20.788 366.339 20.116 365.499 19.108C364.659 18.148 363.891 17.476 363.195 17.092C362.523 16.684 361.827 16.48 361.107 16.48C360.579 16.48 360.135 16.66 359.775 17.02C359.415 17.356 359.235 17.776 359.235 18.28C359.235 18.856 359.523 19.396 360.099 19.9C360.675 20.38 361.575 20.992 362.799 21.736C364.047 22.48 365.079 23.152 365.895 23.752C366.711 24.352 367.407 25.096 367.983 25.984C368.559 26.872 368.847 27.892 368.847 29.044C368.847 29.788 368.727 30.532 368.487 31.276C367.911 33.196 366.795 34.66 365.139 35.668C363.483 36.652 361.551 37.144 359.343 37.144C357.687 37.144 356.295 36.952 355.167 36.568C354.039 36.184 352.887 35.536 351.711 34.624L350.415 35.704C349.815 36.208 349.323 36.556 348.939 36.748C348.555 36.916 348.123 37 347.643 37C347.091 37 346.647 36.868 346.311 36.604C345.999 36.34 345.843 35.98 345.843 35.524C345.843 35.284 345.891 35.032 345.987 34.768L347.751 29.404C347.943 28.78 348.207 28.336 348.543 28.072C348.879 27.808 349.311 27.676 349.839 27.676C350.391 27.676 350.883 27.868 351.315 28.252C351.771 28.636 352.359 29.332 353.079 30.34C353.847 31.444 354.555 32.212 355.203 32.644C355.875 33.076 356.667 33.292 357.579 33.292C358.227 33.292 358.719 33.196 359.055 33.004C359.415 32.788 359.667 32.452 359.811 31.996C359.859 31.876 359.883 31.696 359.883 31.456C359.883 30.88 359.607 30.352 359.055 29.872C358.503 29.392 357.651 28.816 356.499 28.144C355.275 27.4 354.279 26.74 353.511 26.164C352.743 25.564 352.071 24.82 351.495 23.932C350.943 23.044 350.667 22 350.667 20.8C350.667 19.96 350.799 19.132 351.063 18.316C351.567 16.66 352.599 15.328 354.159 14.32C355.719 13.312 357.507 12.808 359.523 12.808ZM392.227 17.956C393.595 17.956 394.687 18.34 395.503 19.108C396.343 19.852 396.763 20.764 396.763 21.844C396.763 22.996 396.415 23.896 395.719 24.544C395.023 25.192 394.111 25.516 392.983 25.516C391.975 25.516 391.195 25.264 390.643 24.76C390.091 24.232 389.827 23.644 389.851 22.996C389.611 22.948 389.407 23.044 389.239 23.284C389.071 23.524 388.891 23.992 388.699 24.688C388.579 25.144 388.351 25.564 388.015 25.948C389.647 26.068 390.859 26.44 391.651 27.064C392.443 27.688 392.839 28.492 392.839 29.476C392.839 29.956 392.755 30.436 392.587 30.916L392.299 32.032C392.251 32.152 392.227 32.308 392.227 32.5C392.227 32.836 392.383 33.004 392.695 33.004C392.983 33.004 393.223 32.884 393.415 32.644C393.631 32.38 393.775 32.248 393.847 32.248C393.967 32.248 394.063 32.332 394.135 32.5C394.207 32.644 394.243 32.824 394.243 33.04C394.267 33.736 394.051 34.42 393.595 35.092C393.163 35.74 392.491 36.28 391.579 36.712C390.691 37.12 389.611 37.324 388.339 37.324C386.803 37.324 385.519 36.94 384.487 36.172C383.479 35.404 382.975 34.396 382.975 33.148C382.975 32.692 383.071 32.176 383.263 31.6L383.947 29.8C384.067 29.368 384.127 29.056 384.127 28.864C384.127 28.552 384.019 28.324 383.803 28.18C383.611 28.036 383.299 27.964 382.867 27.964H382.147L380.527 33.256C380.455 33.544 380.419 33.796 380.419 34.012C380.419 34.324 380.479 34.576 380.599 34.768C380.719 34.936 380.887 35.104 381.103 35.272C381.271 35.44 381.391 35.584 381.463 35.704C381.535 35.8 381.547 35.932 381.499 36.1C381.379 36.412 381.139 36.64 380.779 36.784C380.419 36.928 379.867 37 379.123 37H370.915C370.291 37 369.835 36.904 369.547 36.712C369.259 36.496 369.163 36.22 369.259 35.884C369.355 35.596 369.607 35.344 370.015 35.128C370.375 34.936 370.675 34.708 370.915 34.444C371.155 34.18 371.359 33.76 371.527 33.184L376.999 15.22C377.071 15.004 377.107 14.824 377.107 14.68C377.107 14.416 377.035 14.2 376.891 14.032C376.771 13.864 376.603 13.696 376.387 13.528C376.147 13.336 375.967 13.168 375.847 13.024C375.751 12.88 375.739 12.688 375.811 12.448C375.955 11.896 376.711 11.416 378.079 11.008C379.447 10.6 380.875 10.396 382.363 10.396C383.755 10.396 384.775 10.66 385.423 11.188C386.071 11.692 386.395 12.4 386.395 13.312C386.395 13.864 386.311 14.392 386.143 14.896L383.011 25.12H384.199C384.679 25.12 385.063 24.976 385.351 24.688C385.663 24.4 385.903 23.98 386.071 23.428C386.671 21.652 387.451 20.296 388.411 19.36C389.371 18.424 390.643 17.956 392.227 17.956ZM408.903 17.956C411.663 17.956 413.871 18.472 415.527 19.504C417.183 20.512 418.011 22.06 418.011 24.148C418.011 24.94 417.867 25.84 417.579 26.848L416.103 31.816C416.079 31.912 416.067 32.032 416.067 32.176C416.067 32.56 416.223 32.752 416.535 32.752C416.823 32.752 417.063 32.632 417.255 32.392C417.471 32.128 417.615 31.996 417.687 31.996C417.807 31.996 417.903 32.08 417.975 32.248C418.071 32.416 418.119 32.608 418.119 32.824C418.143 33.472 417.891 34.132 417.363 34.804C416.859 35.476 416.175 36.028 415.311 36.46C414.447 36.892 413.499 37.108 412.467 37.108C411.219 37.108 410.151 36.88 409.263 36.424C408.375 35.968 407.763 35.296 407.427 34.408C406.707 35.272 405.855 35.944 404.871 36.424C403.887 36.88 402.831 37.108 401.703 37.108C400.431 37.108 399.363 36.868 398.499 36.388C397.635 35.884 396.987 35.248 396.555 34.48C396.147 33.688 395.943 32.86 395.943 31.996C395.943 31.612 395.979 31.24 396.051 30.88C396.435 29.224 397.263 27.976 398.535 27.136C399.831 26.296 401.367 25.876 403.143 25.876C405.135 25.876 407.091 26.188 409.011 26.812L409.911 24.436C410.223 23.428 410.379 22.648 410.379 22.096C410.355 21.52 410.163 21.088 409.803 20.8C409.443 20.512 408.891 20.368 408.147 20.368C408.291 20.752 408.363 21.148 408.363 21.556C408.363 22.444 408.027 23.212 407.355 23.86C406.683 24.508 405.723 24.832 404.475 24.832C403.299 24.832 402.375 24.58 401.703 24.076C401.055 23.548 400.731 22.9 400.731 22.132C400.731 20.932 401.403 19.936 402.747 19.144C404.091 18.352 406.143 17.956 408.903 17.956ZM406.887 28.864C406.215 28.864 405.663 29.128 405.231 29.656C404.823 30.16 404.619 30.712 404.619 31.312C404.619 31.696 404.703 32.008 404.871 32.248C405.063 32.488 405.327 32.608 405.663 32.608C405.975 32.608 406.311 32.488 406.671 32.248C407.055 31.984 407.331 31.6 407.499 31.096L408.255 28.972C407.847 28.9 407.391 28.864 406.887 28.864ZM431.089 10.396C432.481 10.396 433.501 10.66 434.149 11.188C434.821 11.716 435.157 12.436 435.157 13.348C435.157 13.876 435.073 14.392 434.905 14.896L429.253 33.256C429.181 33.544 429.145 33.796 429.145 34.012C429.145 34.324 429.205 34.576 429.325 34.768C429.445 34.936 429.613 35.104 429.829 35.272C429.997 35.44 430.117 35.584 430.189 35.704C430.261 35.8 430.273 35.932 430.225 36.1C430.105 36.412 429.865 36.64 429.505 36.784C429.145 36.928 428.593 37 427.849 37H419.641C419.017 37 418.561 36.904 418.273 36.712C417.985 36.496 417.889 36.22 417.985 35.884C418.081 35.596 418.333 35.344 418.741 35.128C419.101 34.936 419.401 34.708 419.641 34.444C419.881 34.18 420.085 33.76 420.253 33.184L425.725 15.22C425.797 15.004 425.833 14.824 425.833 14.68C425.833 14.416 425.761 14.2 425.617 14.032C425.497 13.864 425.329 13.696 425.113 13.528C424.873 13.336 424.693 13.168 424.573 13.024C424.477 12.88 424.465 12.688 424.537 12.448C424.681 11.896 425.437 11.416 426.805 11.008C428.173 10.6 429.601 10.396 431.089 10.396ZM445.641 17.956C448.401 17.956 450.609 18.472 452.265 19.504C453.921 20.512 454.749 22.06 454.749 24.148C454.749 24.94 454.605 25.84 454.317 26.848L452.841 31.816C452.817 31.912 452.805 32.032 452.805 32.176C452.805 32.56 452.961 32.752 453.273 32.752C453.561 32.752 453.801 32.632 453.993 32.392C454.209 32.128 454.353 31.996 454.425 31.996C454.545 31.996 454.641 32.08 454.713 32.248C454.809 32.416 454.857 32.608 454.857 32.824C454.881 33.472 454.629 34.132 454.101 34.804C453.597 35.476 452.913 36.028 452.049 36.46C451.185 36.892 450.237 37.108 449.205 37.108C447.957 37.108 446.889 36.88 446.001 36.424C445.113 35.968 444.501 35.296 444.165 34.408C443.445 35.272 442.593 35.944 441.609 36.424C440.625 36.88 439.569 37.108 438.441 37.108C437.169 37.108 436.101 36.868 435.237 36.388C434.373 35.884 433.725 35.248 433.293 34.48C432.885 33.688 432.681 32.86 432.681 31.996C432.681 31.612 432.717 31.24 432.789 30.88C433.173 29.224 434.001 27.976 435.273 27.136C436.569 26.296 438.105 25.876 439.881 25.876C441.873 25.876 443.829 26.188 445.749 26.812L446.649 24.436C446.961 23.428 447.117 22.648 447.117 22.096C447.093 21.52 446.901 21.088 446.541 20.8C446.181 20.512 445.629 20.368 444.885 20.368C445.029 20.752 445.101 21.148 445.101 21.556C445.101 22.444 444.765 23.212 444.093 23.86C443.421 24.508 442.461 24.832 441.213 24.832C440.037 24.832 439.113 24.58 438.441 24.076C437.793 23.548 437.469 22.9 437.469 22.132C437.469 20.932 438.141 19.936 439.485 19.144C440.829 18.352 442.881 17.956 445.641 17.956ZM443.625 28.864C442.953 28.864 442.401 29.128 441.969 29.656C441.561 30.16 441.357 30.712 441.357 31.312C441.357 31.696 441.441 32.008 441.609 32.248C441.801 32.488 442.065 32.608 442.401 32.608C442.713 32.608 443.049 32.488 443.409 32.248C443.793 31.984 444.069 31.6 444.237 31.096L444.993 28.972C444.585 28.9 444.129 28.864 443.625 28.864ZM468.051 24.328C468.219 23.632 468.567 23.092 469.095 22.708C469.623 22.324 470.271 22.132 471.039 22.132H479.427C480.747 22.132 481.407 22.648 481.407 23.68C481.407 23.944 481.383 24.16 481.335 24.328C480.879 25.792 479.871 26.524 478.311 26.524H469.923C469.275 26.524 468.783 26.404 468.447 26.164C468.111 25.9 467.943 25.528 467.943 25.048C467.943 24.808 467.979 24.568 468.051 24.328Z" fill="black"/>
<path id="Pianist" d="M515.404 13.024C517.948 13.024 519.904 13.576 521.272 14.68C522.664 15.784 523.36 17.248 523.36 19.072C523.36 19.792 523.252 20.548 523.036 21.34C522.364 23.74 521.032 25.516 519.04 26.668C517.072 27.82 514.576 28.396 511.552 28.396H507.844L506.62 32.752C506.572 32.896 506.548 33.088 506.548 33.328C506.548 33.664 506.62 33.94 506.764 34.156C506.932 34.372 507.172 34.624 507.484 34.912C507.748 35.152 507.928 35.332 508.024 35.452C508.12 35.572 508.168 35.716 508.168 35.884C508.168 36.292 507.976 36.58 507.592 36.748C507.208 36.916 506.644 37 505.9 37H496.864C496.24 37 495.772 36.892 495.46 36.676C495.148 36.436 495.04 36.112 495.136 35.704C495.184 35.488 495.28 35.32 495.424 35.2C495.544 35.056 495.736 34.9 496 34.732C496.408 34.492 496.732 34.24 496.972 33.976C497.212 33.712 497.404 33.304 497.548 32.752L501.94 17.236C502.036 16.924 502.084 16.624 502.084 16.336C502.084 16.072 502.036 15.856 501.94 15.688C501.868 15.496 501.76 15.28 501.616 15.04C501.4 14.728 501.292 14.476 501.292 14.284C501.292 14.212 501.316 14.08 501.364 13.888C501.46 13.576 501.664 13.36 501.976 13.24C502.312 13.096 502.816 13.024 503.488 13.024H515.404ZM514.468 20.692C514.732 19.804 514.864 19.024 514.864 18.352C514.864 16.96 514.216 16.264 512.92 16.264H511.3L508.744 25.156H510.328C511.336 25.156 512.152 24.844 512.776 24.22C513.424 23.572 513.988 22.396 514.468 20.692ZM530.745 17.956C532.137 17.956 533.157 18.22 533.805 18.748C534.453 19.276 534.777 19.996 534.777 20.908C534.777 21.46 534.693 21.988 534.525 22.492L531.213 33.256C531.141 33.544 531.105 33.796 531.105 34.012C531.105 34.324 531.165 34.576 531.285 34.768C531.405 34.936 531.573 35.104 531.789 35.272C531.957 35.44 532.077 35.584 532.149 35.704C532.221 35.8 532.233 35.932 532.185 36.1C532.065 36.412 531.825 36.64 531.465 36.784C531.105 36.928 530.553 37 529.809 37H521.601C520.977 37 520.521 36.904 520.233 36.712C519.945 36.496 519.849 36.22 519.945 35.884C520.041 35.596 520.293 35.344 520.701 35.128C521.061 34.936 521.361 34.708 521.601 34.444C521.841 34.18 522.045 33.76 522.213 33.184L525.345 22.78C525.417 22.564 525.453 22.384 525.453 22.24C525.453 21.976 525.393 21.772 525.273 21.628C525.153 21.46 524.973 21.292 524.733 21.124C524.493 20.932 524.325 20.764 524.229 20.62C524.133 20.476 524.121 20.284 524.193 20.044C524.337 19.492 525.093 19.012 526.461 18.604C527.829 18.172 529.257 17.956 530.745 17.956ZM533.157 10C534.093 10 534.873 10.312 535.497 10.936C536.121 11.536 536.433 12.28 536.433 13.168C536.433 13.792 536.265 14.404 535.929 15.004C535.617 15.604 535.161 16.096 534.561 16.48C533.985 16.84 533.337 17.02 532.617 17.02C531.705 17.02 530.937 16.72 530.313 16.12C529.713 15.496 529.401 14.728 529.377 13.816C529.377 13.216 529.533 12.628 529.845 12.052C530.157 11.452 530.601 10.96 531.177 10.576C531.753 10.192 532.413 10 533.157 10ZM547.313 17.956C550.073 17.956 552.281 18.472 553.937 19.504C555.593 20.512 556.421 22.06 556.421 24.148C556.421 24.94 556.277 25.84 555.989 26.848L554.513 31.816C554.489 31.912 554.477 32.032 554.477 32.176C554.477 32.56 554.633 32.752 554.945 32.752C555.233 32.752 555.473 32.632 555.665 32.392C555.881 32.128 556.025 31.996 556.097 31.996C556.217 31.996 556.313 32.08 556.385 32.248C556.481 32.416 556.529 32.608 556.529 32.824C556.553 33.472 556.301 34.132 555.773 34.804C555.269 35.476 554.585 36.028 553.721 36.46C552.857 36.892 551.909 37.108 550.877 37.108C549.629 37.108 548.561 36.88 547.673 36.424C546.785 35.968 546.173 35.296 545.837 34.408C545.117 35.272 544.265 35.944 543.281 36.424C542.297 36.88 541.241 37.108 540.113 37.108C538.841 37.108 537.773 36.868 536.909 36.388C536.045 35.884 535.397 35.248 534.965 34.48C534.557 33.688 534.353 32.86 534.353 31.996C534.353 31.612 534.389 31.24 534.461 30.88C534.845 29.224 535.673 27.976 536.945 27.136C538.241 26.296 539.777 25.876 541.553 25.876C543.545 25.876 545.501 26.188 547.421 26.812L548.321 24.436C548.633 23.428 548.789 22.648 548.789 22.096C548.765 21.52 548.573 21.088 548.213 20.8C547.853 20.512 547.301 20.368 546.557 20.368C546.701 20.752 546.773 21.148 546.773 21.556C546.773 22.444 546.437 23.212 545.765 23.86C545.093 24.508 544.133 24.832 542.885 24.832C541.709 24.832 540.785 24.58 540.113 24.076C539.465 23.548 539.141 22.9 539.141 22.132C539.141 20.932 539.813 19.936 541.157 19.144C542.501 18.352 544.553 17.956 547.313 17.956ZM545.297 28.864C544.625 28.864 544.073 29.128 543.641 29.656C543.233 30.16 543.029 30.712 543.029 31.312C543.029 31.696 543.113 32.008 543.281 32.248C543.473 32.488 543.737 32.608 544.073 32.608C544.385 32.608 544.721 32.488 545.081 32.248C545.465 31.984 545.741 31.6 545.909 31.096L546.665 28.972C546.257 28.9 545.801 28.864 545.297 28.864ZM580.3 32.032C580.252 32.128 580.228 32.272 580.228 32.464C580.228 32.632 580.264 32.764 580.336 32.86C580.432 32.956 580.552 33.004 580.696 33.004C580.984 33.004 581.224 32.884 581.416 32.644C581.632 32.38 581.776 32.248 581.848 32.248C581.968 32.248 582.064 32.332 582.136 32.5C582.208 32.644 582.244 32.824 582.244 33.04C582.268 33.736 582.04 34.42 581.56 35.092C581.08 35.74 580.372 36.28 579.436 36.712C578.524 37.12 577.42 37.324 576.124 37.324C574.54 37.324 573.28 36.964 572.344 36.244C571.408 35.5 570.928 34.516 570.904 33.292C570.904 32.404 571.12 31.408 571.552 30.304L573.532 25.12C573.652 24.808 573.712 24.556 573.712 24.364C573.712 24.052 573.604 23.812 573.388 23.644C573.196 23.452 572.956 23.356 572.668 23.356C572.14 23.356 571.636 23.608 571.156 24.112C570.676 24.592 570.328 25.192 570.112 25.912L567.88 33.256C567.784 33.52 567.736 33.772 567.736 34.012C567.736 34.3 567.796 34.54 567.916 34.732C568.036 34.9 568.204 35.08 568.42 35.272C568.588 35.416 568.708 35.548 568.78 35.668C568.852 35.788 568.864 35.932 568.816 36.1C568.72 36.412 568.492 36.64 568.132 36.784C567.772 36.928 567.208 37 566.44 37H558.232C557.608 37 557.164 36.904 556.9 36.712C556.612 36.496 556.504 36.22 556.576 35.884C556.672 35.596 556.924 35.344 557.332 35.128C557.692 34.936 557.992 34.708 558.232 34.444C558.472 34.18 558.676 33.76 558.844 33.184L562.048 22.78C562.096 22.66 562.12 22.492 562.12 22.276C562.12 22.012 562.06 21.808 561.94 21.664C561.844 21.52 561.676 21.34 561.436 21.124C561.196 20.932 561.028 20.764 560.932 20.62C560.836 20.476 560.824 20.284 560.896 20.044C561.04 19.492 561.796 19.012 563.164 18.604C564.532 18.172 565.96 17.956 567.448 17.956C568.648 17.956 569.596 18.292 570.292 18.964C570.988 19.612 571.3 20.524 571.228 21.7C572.212 20.284 573.256 19.312 574.36 18.784C575.464 18.232 576.664 17.956 577.96 17.956C579.424 17.956 580.6 18.4 581.488 19.288C582.4 20.176 582.856 21.328 582.856 22.744C582.856 23.488 582.736 24.22 582.496 24.94L580.3 32.032ZM593.253 17.956C594.645 17.956 595.665 18.22 596.313 18.748C596.961 19.276 597.285 19.996 597.285 20.908C597.285 21.46 597.201 21.988 597.033 22.492L593.721 33.256C593.649 33.544 593.613 33.796 593.613 34.012C593.613 34.324 593.673 34.576 593.793 34.768C593.913 34.936 594.081 35.104 594.297 35.272C594.465 35.44 594.585 35.584 594.657 35.704C594.729 35.8 594.741 35.932 594.693 36.1C594.573 36.412 594.333 36.64 593.973 36.784C593.613 36.928 593.061 37 592.317 37H584.109C583.485 37 583.029 36.904 582.741 36.712C582.453 36.496 582.357 36.22 582.453 35.884C582.549 35.596 582.801 35.344 583.209 35.128C583.569 34.936 583.869 34.708 584.109 34.444C584.349 34.18 584.553 33.76 584.721 33.184L587.853 22.78C587.925 22.564 587.961 22.384 587.961 22.24C587.961 21.976 587.901 21.772 587.781 21.628C587.661 21.46 587.481 21.292 587.241 21.124C587.001 20.932 586.833 20.764 586.737 20.62C586.641 20.476 586.629 20.284 586.701 20.044C586.845 19.492 587.601 19.012 588.969 18.604C590.337 18.172 591.765 17.956 593.253 17.956ZM595.665 10C596.601 10 597.381 10.312 598.005 10.936C598.629 11.536 598.941 12.28 598.941 13.168C598.941 13.792 598.773 14.404 598.437 15.004C598.125 15.604 597.669 16.096 597.069 16.48C596.493 16.84 595.845 17.02 595.125 17.02C594.213 17.02 593.445 16.72 592.821 16.12C592.221 15.496 591.909 14.728 591.885 13.816C591.885 13.216 592.041 12.628 592.353 12.052C592.665 11.452 593.109 10.96 593.685 10.576C594.261 10.192 594.921 10 595.665 10ZM608.813 17.632C610.805 17.632 612.521 17.812 613.961 18.172C615.425 18.532 616.541 19.036 617.309 19.684C618.101 20.332 618.497 21.064 618.497 21.88C618.497 22.72 618.161 23.404 617.489 23.932C616.841 24.46 615.929 24.724 614.753 24.724C613.553 24.724 612.533 24.424 611.693 23.824C610.877 23.224 610.469 22.468 610.469 21.556C610.469 21.244 610.517 20.944 610.613 20.656C610.181 20.536 609.797 20.476 609.461 20.476C608.861 20.476 608.357 20.62 607.949 20.908C607.565 21.196 607.385 21.604 607.409 22.132C607.409 22.756 607.721 23.284 608.345 23.716C608.969 24.148 609.977 24.688 611.369 25.336C612.569 25.864 613.553 26.356 614.321 26.812C615.113 27.244 615.773 27.796 616.301 28.468C616.853 29.14 617.129 29.932 617.129 30.844C617.129 31.036 617.081 31.396 616.985 31.924C616.601 33.532 615.533 34.804 613.781 35.74C612.029 36.676 609.725 37.144 606.869 37.144C603.653 37.144 601.097 36.712 599.201 35.848C597.329 34.984 596.393 33.796 596.393 32.284C596.393 31.252 596.705 30.472 597.329 29.944C597.953 29.416 598.781 29.152 599.813 29.152C601.013 29.152 602.033 29.524 602.873 30.268C603.737 31.012 604.169 31.96 604.169 33.112C604.169 33.424 604.133 33.748 604.061 34.084C604.637 34.228 605.189 34.3 605.717 34.3C606.341 34.3 606.857 34.132 607.265 33.796C607.673 33.46 607.877 32.992 607.877 32.392C607.853 31.84 607.577 31.372 607.049 30.988C606.521 30.58 605.681 30.1 604.529 29.548C603.449 29.044 602.561 28.576 601.865 28.144C601.169 27.688 600.569 27.124 600.065 26.452C599.585 25.78 599.345 24.988 599.345 24.076C599.345 22.108 600.161 20.548 601.793 19.396C603.449 18.22 605.789 17.632 608.813 17.632ZM634.401 18.424C634.857 18.424 635.205 18.52 635.445 18.712C635.709 18.904 635.841 19.168 635.841 19.504C635.841 19.6 635.817 19.768 635.769 20.008C635.457 21.064 634.737 21.592 633.609 21.592H631.521L628.821 30.484C628.701 30.844 628.641 31.216 628.641 31.6C628.641 32.032 628.761 32.332 629.001 32.5C629.241 32.668 629.577 32.752 630.009 32.752C630.393 32.752 630.873 32.704 631.449 32.608C631.737 32.536 631.989 32.5 632.205 32.5C632.373 32.5 632.493 32.56 632.565 32.68C632.661 32.776 632.709 32.908 632.709 33.076C632.733 33.556 632.373 34.144 631.629 34.84C630.909 35.512 629.925 36.1 628.677 36.604C627.429 37.084 626.049 37.324 624.537 37.324C622.905 37.324 621.597 36.952 620.613 36.208C619.629 35.464 619.137 34.444 619.137 33.148C619.137 32.548 619.233 31.972 619.425 31.42L621.729 24.292C621.849 23.884 621.909 23.56 621.909 23.32C621.909 22.84 621.789 22.432 621.549 22.096C621.333 21.76 621.021 21.412 620.613 21.052C620.253 20.716 620.001 20.44 619.857 20.224C619.713 19.984 619.677 19.708 619.749 19.396C619.845 19.084 620.049 18.844 620.361 18.676C620.673 18.508 621.165 18.424 621.837 18.424H623.853L626.121 16.156C626.913 15.364 627.633 14.812 628.281 14.5C628.953 14.188 629.817 14.032 630.873 14.032C632.385 14.032 633.141 14.608 633.141 15.76C633.141 16.12 633.093 16.456 632.997 16.768L632.493 18.424H634.401Z" fill="black"/>
<path id="Junior Front End Developer" d="M662.636 17.56C662.684 17.416 662.708 17.224 662.708 16.984C662.708 16.6 662.6 16.288 662.384 16.048C662.192 15.808 661.88 15.544 661.448 15.256C661.088 14.992 660.824 14.764 660.656 14.572C660.512 14.38 660.476 14.152 660.548 13.888C660.62 13.552 660.8 13.324 661.088 13.204C661.376 13.084 661.832 13.024 662.456 13.024H672.68C673.184 13.024 673.568 13.108 673.832 13.276C674.12 13.444 674.264 13.66 674.264 13.924C674.264 14.044 674.228 14.2 674.156 14.392C674.084 14.56 673.976 14.716 673.832 14.86C673.712 14.98 673.592 15.076 673.472 15.148C673.376 15.196 673.304 15.244 673.256 15.292C672.872 15.508 672.56 15.748 672.32 16.012C672.08 16.276 671.876 16.684 671.708 17.236L668.18 29.692C667.46 32.236 666.236 34.132 664.508 35.38C662.78 36.604 660.536 37.216 657.776 37.216C655.928 37.216 654.356 36.952 653.06 36.424C651.788 35.872 650.828 35.14 650.18 34.228C649.532 33.316 649.208 32.32 649.208 31.24C649.208 30.712 649.28 30.196 649.424 29.692C649.736 28.612 650.264 27.796 651.008 27.244C651.776 26.692 652.628 26.416 653.564 26.416C654.644 26.416 655.472 26.74 656.048 27.388C656.624 28.036 656.912 28.864 656.912 29.872C656.912 30.376 656.84 30.88 656.696 31.384C656.408 32.392 655.868 33.136 655.076 33.616C655.46 33.856 655.904 33.976 656.408 33.976C656.912 33.976 657.356 33.724 657.74 33.22C658.124 32.716 658.448 32.008 658.712 31.096L662.636 17.56ZM692.618 32.032C692.57 32.224 692.546 32.368 692.546 32.464C692.546 32.632 692.582 32.764 692.654 32.86C692.75 32.956 692.87 33.004 693.014 33.004C693.302 33.004 693.542 32.884 693.734 32.644C693.95 32.38 694.094 32.248 694.166 32.248C694.286 32.248 694.382 32.332 694.454 32.5C694.55 32.644 694.598 32.824 694.598 33.04C694.622 33.712 694.382 34.384 693.878 35.056C693.374 35.704 692.666 36.244 691.754 36.676C690.842 37.108 689.822 37.324 688.694 37.324C687.278 37.324 686.15 37.036 685.31 36.46C684.47 35.884 683.93 35.128 683.69 34.192C682.826 35.152 681.866 35.884 680.81 36.388C679.778 36.868 678.722 37.108 677.642 37.108C675.962 37.108 674.546 36.7 673.394 35.884C672.266 35.044 671.702 33.88 671.702 32.392C671.702 31.72 671.822 31.024 672.062 30.304L674.366 22.78C674.438 22.564 674.474 22.384 674.474 22.24C674.474 21.976 674.414 21.772 674.294 21.628C674.174 21.46 673.994 21.292 673.754 21.124C673.514 20.932 673.346 20.764 673.25 20.62C673.154 20.476 673.142 20.284 673.214 20.044C673.358 19.492 674.114 19.012 675.482 18.604C676.85 18.172 678.278 17.956 679.766 17.956C681.158 17.956 682.178 18.22 682.826 18.748C683.474 19.276 683.798 19.996 683.798 20.908C683.798 21.46 683.714 21.988 683.546 22.492L681.278 29.98C681.182 30.244 681.134 30.496 681.134 30.736C681.134 31.072 681.23 31.324 681.422 31.492C681.614 31.66 681.866 31.744 682.178 31.744C682.634 31.744 683.006 31.612 683.294 31.348C683.582 31.084 683.87 30.64 684.158 30.016L686.354 22.78C686.426 22.564 686.462 22.384 686.462 22.24C686.462 21.976 686.402 21.772 686.282 21.628C686.162 21.46 685.994 21.292 685.778 21.124C685.538 20.932 685.37 20.764 685.274 20.62C685.178 20.476 685.166 20.284 685.238 20.044C685.358 19.492 686.102 19.012 687.47 18.604C688.838 18.172 690.266 17.956 691.754 17.956C693.146 17.956 694.166 18.22 694.814 18.748C695.486 19.276 695.822 19.984 695.822 20.872C695.822 21.328 695.726 21.868 695.534 22.492L692.618 32.032ZM718.198 32.032C718.15 32.128 718.126 32.272 718.126 32.464C718.126 32.632 718.162 32.764 718.234 32.86C718.33 32.956 718.45 33.004 718.594 33.004C718.882 33.004 719.122 32.884 719.314 32.644C719.53 32.38 719.674 32.248 719.746 32.248C719.866 32.248 719.962 32.332 720.034 32.5C720.106 32.644 720.142 32.824 720.142 33.04C720.166 33.736 719.938 34.42 719.458 35.092C718.978 35.74 718.27 36.28 717.334 36.712C716.422 37.12 715.318 37.324 714.022 37.324C712.438 37.324 711.178 36.964 710.242 36.244C709.306 35.5 708.826 34.516 708.802 33.292C708.802 32.404 709.018 31.408 709.45 30.304L711.43 25.12C711.55 24.808 711.61 24.556 711.61 24.364C711.61 24.052 711.502 23.812 711.286 23.644C711.094 23.452 710.854 23.356 710.566 23.356C710.038 23.356 709.534 23.608 709.054 24.112C708.574 24.592 708.226 25.192 708.01 25.912L705.778 33.256C705.682 33.52 705.634 33.772 705.634 34.012C705.634 34.3 705.694 34.54 705.814 34.732C705.934 34.9 706.102 35.08 706.318 35.272C706.486 35.416 706.606 35.548 706.678 35.668C706.75 35.788 706.762 35.932 706.714 36.1C706.618 36.412 706.39 36.64 706.03 36.784C705.67 36.928 705.106 37 704.338 37H696.13C695.506 37 695.062 36.904 694.798 36.712C694.51 36.496 694.402 36.22 694.474 35.884C694.57 35.596 694.822 35.344 695.23 35.128C695.59 34.936 695.89 34.708 696.13 34.444C696.37 34.18 696.574 33.76 696.742 33.184L699.946 22.78C699.994 22.66 700.018 22.492 700.018 22.276C700.018 22.012 699.958 21.808 699.838 21.664C699.742 21.52 699.574 21.34 699.334 21.124C699.094 20.932 698.926 20.764 698.83 20.62C698.734 20.476 698.722 20.284 698.794 20.044C698.938 19.492 699.694 19.012 701.062 18.604C702.43 18.172 703.858 17.956 705.346 17.956C706.546 17.956 707.494 18.292 708.19 18.964C708.886 19.612 709.198 20.524 709.126 21.7C710.11 20.284 711.154 19.312 712.258 18.784C713.362 18.232 714.562 17.956 715.858 17.956C717.322 17.956 718.498 18.4 719.386 19.288C720.298 20.176 720.754 21.328 720.754 22.744C720.754 23.488 720.634 24.22 720.394 24.94L718.198 32.032ZM731.152 17.956C732.544 17.956 733.564 18.22 734.212 18.748C734.86 19.276 735.184 19.996 735.184 20.908C735.184 21.46 735.1 21.988 734.932 22.492L731.62 33.256C731.548 33.544 731.512 33.796 731.512 34.012C731.512 34.324 731.572 34.576 731.692 34.768C731.812 34.936 731.98 35.104 732.196 35.272C732.364 35.44 732.484 35.584 732.556 35.704C732.628 35.8 732.64 35.932 732.592 36.1C732.472 36.412 732.232 36.64 731.872 36.784C731.512 36.928 730.96 37 730.216 37H722.008C721.384 37 720.928 36.904 720.64 36.712C720.352 36.496 720.256 36.22 720.352 35.884C720.448 35.596 720.7 35.344 721.108 35.128C721.468 34.936 721.768 34.708 722.008 34.444C722.248 34.18 722.452 33.76 722.62 33.184L725.752 22.78C725.824 22.564 725.86 22.384 725.86 22.24C725.86 21.976 725.8 21.772 725.68 21.628C725.56 21.46 725.38 21.292 725.14 21.124C724.9 20.932 724.732 20.764 724.636 20.62C724.54 20.476 724.528 20.284 724.6 20.044C724.744 19.492 725.5 19.012 726.868 18.604C728.236 18.172 729.664 17.956 731.152 17.956ZM733.564 10C734.5 10 735.28 10.312 735.904 10.936C736.528 11.536 736.84 12.28 736.84 13.168C736.84 13.792 736.672 14.404 736.336 15.004C736.024 15.604 735.568 16.096 734.968 16.48C734.392 16.84 733.744 17.02 733.024 17.02C732.112 17.02 731.344 16.72 730.72 16.12C730.12 15.496 729.808 14.728 729.784 13.816C729.784 13.216 729.94 12.628 730.252 12.052C730.564 11.452 731.008 10.96 731.584 10.576C732.16 10.192 732.82 10 733.564 10ZM748.799 17.956C752.063 17.956 754.463 18.616 755.999 19.936C757.559 21.256 758.339 22.984 758.339 25.12C758.339 25.84 758.243 26.644 758.051 27.532C757.595 29.5 756.743 31.228 755.495 32.716C754.247 34.18 752.711 35.32 750.887 36.136C749.087 36.928 747.131 37.324 745.019 37.324C741.683 37.324 739.211 36.664 737.603 35.344C736.019 34 735.227 32.224 735.227 30.016C735.227 29.272 735.323 28.444 735.515 27.532C735.971 25.66 736.835 24.004 738.107 22.564C739.403 21.1 740.975 19.972 742.823 19.18C744.695 18.364 746.687 17.956 748.799 17.956ZM748.691 21.16C748.187 21.16 747.647 21.616 747.071 22.528C746.519 23.416 745.859 25.108 745.091 27.604C744.323 30.1 743.939 31.852 743.939 32.86C743.939 33.388 744.023 33.748 744.191 33.94C744.359 34.108 744.587 34.192 744.875 34.192C745.379 34.24 745.895 33.808 746.423 32.896C746.975 31.984 747.659 30.208 748.475 27.568C749.219 25.24 749.591 23.548 749.591 22.492C749.591 21.988 749.507 21.64 749.339 21.448C749.195 21.256 748.979 21.16 748.691 21.16ZM776.168 17.956C777.512 17.956 778.58 18.364 779.372 19.18C780.188 19.996 780.596 21.004 780.596 22.204C780.596 22.66 780.548 23.08 780.452 23.464C780.212 24.448 779.756 25.204 779.084 25.732C778.412 26.26 777.608 26.524 776.672 26.524C775.76 26.524 775.064 26.308 774.584 25.876C774.128 25.444 773.72 24.868 773.36 24.148C773.168 23.74 772.988 23.44 772.82 23.248C772.652 23.056 772.46 22.96 772.244 22.96C772.004 22.96 771.788 23.056 771.596 23.248C771.428 23.44 771.272 23.776 771.128 24.256L768.356 33.256C768.308 33.376 768.284 33.556 768.284 33.796C768.284 34.108 768.368 34.372 768.536 34.588C768.728 34.78 768.98 34.972 769.292 35.164C769.58 35.356 769.772 35.512 769.868 35.632C769.964 35.752 770 35.908 769.976 36.1C769.928 36.412 769.748 36.64 769.436 36.784C769.148 36.928 768.644 37 767.924 37H758.708C758.084 37 757.64 36.904 757.376 36.712C757.088 36.496 756.98 36.22 757.052 35.884C757.148 35.596 757.4 35.344 757.808 35.128C758.168 34.936 758.468 34.708 758.708 34.444C758.948 34.18 759.152 33.76 759.32 33.184L762.524 22.78C762.572 22.66 762.596 22.492 762.596 22.276C762.596 22.012 762.536 21.808 762.416 21.664C762.32 21.52 762.152 21.34 761.912 21.124C761.672 20.932 761.504 20.764 761.408 20.62C761.312 20.476 761.3 20.284 761.372 20.044C761.516 19.492 762.272 19.012 763.64 18.604C765.008 18.172 766.436 17.956 767.924 17.956C768.908 17.956 769.724 18.184 770.372 18.64C771.02 19.072 771.44 19.696 771.632 20.512C772.784 18.808 774.296 17.956 776.168 17.956ZM810.019 13.024C810.907 13.024 811.591 13.216 812.071 13.6C812.575 13.984 812.827 14.512 812.827 15.184C812.827 15.52 812.779 15.844 812.683 16.156L811.747 19.504C811.579 20.128 811.303 20.572 810.919 20.836C810.535 21.1 810.031 21.232 809.407 21.232C808.807 21.232 808.327 21.112 807.967 20.872C807.607 20.608 807.343 20.188 807.175 19.612L806.599 17.56C806.503 17.2 806.383 16.96 806.239 16.84C806.095 16.72 805.795 16.66 805.339 16.66H801.739L799.723 23.788H800.407C800.743 23.788 801.031 23.74 801.271 23.644C801.535 23.548 801.811 23.368 802.099 23.104L803.215 22.168C803.623 21.808 803.983 21.556 804.295 21.412C804.631 21.244 804.979 21.16 805.339 21.16C805.795 21.16 806.167 21.292 806.455 21.556C806.767 21.82 806.923 22.192 806.923 22.672C806.923 22.864 806.887 23.092 806.815 23.356L805.231 28.828C804.871 30.004 804.223 30.592 803.287 30.592C802.519 30.592 801.919 30.196 801.487 29.404L800.839 28.18C800.671 27.844 800.515 27.628 800.371 27.532C800.227 27.436 800.011 27.388 799.723 27.388H798.679L797.167 32.752C797.119 32.896 797.095 33.088 797.095 33.328C797.095 33.664 797.167 33.94 797.311 34.156C797.479 34.372 797.719 34.6 798.031 34.84C798.295 35.056 798.475 35.236 798.571 35.38C798.667 35.5 798.715 35.656 798.715 35.848C798.715 36.28 798.523 36.58 798.139 36.748C797.755 36.916 797.191 37 796.447 37H787.411C786.787 37 786.319 36.892 786.007 36.676C785.695 36.436 785.587 36.112 785.683 35.704C785.731 35.488 785.827 35.32 785.971 35.2C786.091 35.056 786.283 34.9 786.547 34.732C786.955 34.492 787.279 34.24 787.519 33.976C787.759 33.712 787.951 33.304 788.095 32.752L792.523 17.236C792.619 16.924 792.667 16.636 792.667 16.372C792.667 16.084 792.619 15.844 792.523 15.652C792.451 15.46 792.331 15.256 792.163 15.04C791.947 14.728 791.839 14.476 791.839 14.284C791.839 14.212 791.863 14.08 791.911 13.888C792.007 13.576 792.223 13.36 792.559 13.24C792.895 13.096 793.387 13.024 794.035 13.024H810.019ZM826.934 17.956C828.278 17.956 829.346 18.364 830.138 19.18C830.954 19.996 831.362 21.004 831.362 22.204C831.362 22.66 831.314 23.08 831.218 23.464C830.978 24.448 830.522 25.204 829.85 25.732C829.178 26.26 828.374 26.524 827.438 26.524C826.526 26.524 825.83 26.308 825.35 25.876C824.894 25.444 824.486 24.868 824.126 24.148C823.934 23.74 823.754 23.44 823.586 23.248C823.418 23.056 823.226 22.96 823.01 22.96C822.77 22.96 822.554 23.056 822.362 23.248C822.194 23.44 822.038 23.776 821.894 24.256L819.122 33.256C819.074 33.376 819.05 33.556 819.05 33.796C819.05 34.108 819.134 34.372 819.302 34.588C819.494 34.78 819.746 34.972 820.058 35.164C820.346 35.356 820.538 35.512 820.634 35.632C820.73 35.752 820.766 35.908 820.742 36.1C820.694 36.412 820.514 36.64 820.202 36.784C819.914 36.928 819.41 37 818.69 37H809.474C808.85 37 808.406 36.904 808.142 36.712C807.854 36.496 807.746 36.22 807.818 35.884C807.914 35.596 808.166 35.344 808.574 35.128C808.934 34.936 809.234 34.708 809.474 34.444C809.714 34.18 809.918 33.76 810.086 33.184L813.29 22.78C813.338 22.66 813.362 22.492 813.362 22.276C813.362 22.012 813.302 21.808 813.182 21.664C813.086 21.52 812.918 21.34 812.678 21.124C812.438 20.932 812.27 20.764 812.174 20.62C812.078 20.476 812.066 20.284 812.138 20.044C812.282 19.492 813.038 19.012 814.406 18.604C815.774 18.172 817.202 17.956 818.69 17.956C819.674 17.956 820.49 18.184 821.138 18.64C821.786 19.072 822.206 19.696 822.398 20.512C823.55 18.808 825.062 17.956 826.934 17.956ZM844.037 17.956C847.301 17.956 849.701 18.616 851.237 19.936C852.797 21.256 853.577 22.984 853.577 25.12C853.577 25.84 853.481 26.644 853.289 27.532C852.833 29.5 851.981 31.228 850.733 32.716C849.485 34.18 847.949 35.32 846.125 36.136C844.325 36.928 842.369 37.324 840.257 37.324C836.921 37.324 834.449 36.664 832.841 35.344C831.257 34 830.465 32.224 830.465 30.016C830.465 29.272 830.561 28.444 830.753 27.532C831.209 25.66 832.073 24.004 833.345 22.564C834.641 21.1 836.213 19.972 838.061 19.18C839.933 18.364 841.925 17.956 844.037 17.956ZM843.929 21.16C843.425 21.16 842.885 21.616 842.309 22.528C841.757 23.416 841.097 25.108 840.329 27.604C839.561 30.1 839.177 31.852 839.177 32.86C839.177 33.388 839.261 33.748 839.429 33.94C839.597 34.108 839.825 34.192 840.113 34.192C840.617 34.24 841.133 33.808 841.661 32.896C842.213 31.984 842.897 30.208 843.713 27.568C844.457 25.24 844.829 23.548 844.829 22.492C844.829 21.988 844.745 21.64 844.577 21.448C844.433 21.256 844.217 21.16 843.929 21.16ZM876.014 32.032C875.966 32.128 875.942 32.272 875.942 32.464C875.942 32.632 875.978 32.764 876.05 32.86C876.146 32.956 876.266 33.004 876.41 33.004C876.698 33.004 876.938 32.884 877.13 32.644C877.346 32.38 877.49 32.248 877.562 32.248C877.682 32.248 877.778 32.332 877.85 32.5C877.922 32.644 877.958 32.824 877.958 33.04C877.982 33.736 877.754 34.42 877.274 35.092C876.794 35.74 876.086 36.28 875.15 36.712C874.238 37.12 873.134 37.324 871.838 37.324C870.254 37.324 868.994 36.964 868.058 36.244C867.122 35.5 866.642 34.516 866.618 33.292C866.618 32.404 866.834 31.408 867.266 30.304L869.246 25.12C869.366 24.808 869.426 24.556 869.426 24.364C869.426 24.052 869.318 23.812 869.102 23.644C868.91 23.452 868.67 23.356 868.382 23.356C867.854 23.356 867.35 23.608 866.87 24.112C866.39 24.592 866.042 25.192 865.826 25.912L863.594 33.256C863.498 33.52 863.45 33.772 863.45 34.012C863.45 34.3 863.51 34.54 863.63 34.732C863.75 34.9 863.918 35.08 864.134 35.272C864.302 35.416 864.422 35.548 864.494 35.668C864.566 35.788 864.578 35.932 864.53 36.1C864.434 36.412 864.206 36.64 863.846 36.784C863.486 36.928 862.922 37 862.154 37H853.946C853.322 37 852.878 36.904 852.614 36.712C852.326 36.496 852.218 36.22 852.29 35.884C852.386 35.596 852.638 35.344 853.046 35.128C853.406 34.936 853.706 34.708 853.946 34.444C854.186 34.18 854.39 33.76 854.558 33.184L857.762 22.78C857.81 22.66 857.834 22.492 857.834 22.276C857.834 22.012 857.774 21.808 857.654 21.664C857.558 21.52 857.39 21.34 857.15 21.124C856.91 20.932 856.742 20.764 856.646 20.62C856.55 20.476 856.538 20.284 856.61 20.044C856.754 19.492 857.51 19.012 858.878 18.604C860.246 18.172 861.674 17.956 863.162 17.956C864.362 17.956 865.31 18.292 866.006 18.964C866.702 19.612 867.014 20.524 866.942 21.7C867.926 20.284 868.97 19.312 870.074 18.784C871.178 18.232 872.378 17.956 873.674 17.956C875.138 17.956 876.314 18.4 877.202 19.288C878.114 20.176 878.57 21.328 878.57 22.744C878.57 23.488 878.45 24.22 878.21 24.94L876.014 32.032ZM895.592 18.424C896.048 18.424 896.396 18.52 896.636 18.712C896.9 18.904 897.032 19.168 897.032 19.504C897.032 19.6 897.008 19.768 896.96 20.008C896.648 21.064 895.928 21.592 894.8 21.592H892.712L890.012 30.484C889.892 30.844 889.832 31.216 889.832 31.6C889.832 32.032 889.952 32.332 890.192 32.5C890.432 32.668 890.768 32.752 891.2 32.752C891.584 32.752 892.064 32.704 892.64 32.608C892.928 32.536 893.18 32.5 893.396 32.5C893.564 32.5 893.684 32.56 893.756 32.68C893.852 32.776 893.9 32.908 893.9 33.076C893.924 33.556 893.564 34.144 892.82 34.84C892.1 35.512 891.116 36.1 889.868 36.604C888.62 37.084 887.24 37.324 885.728 37.324C884.096 37.324 882.788 36.952 881.804 36.208C880.82 35.464 880.328 34.444 880.328 33.148C880.328 32.548 880.424 31.972 880.616 31.42L882.92 24.292C883.04 23.884 883.1 23.56 883.1 23.32C883.1 22.84 882.98 22.432 882.74 22.096C882.524 21.76 882.212 21.412 881.804 21.052C881.444 20.716 881.192 20.44 881.048 20.224C880.904 19.984 880.868 19.708 880.94 19.396C881.036 19.084 881.24 18.844 881.552 18.676C881.864 18.508 882.356 18.424 883.028 18.424H885.044L887.312 16.156C888.104 15.364 888.824 14.812 889.472 14.5C890.144 14.188 891.008 14.032 892.064 14.032C893.576 14.032 894.332 14.608 894.332 15.76C894.332 16.12 894.284 16.456 894.188 16.768L893.684 18.424H895.592ZM925.684 13.024C926.572 13.024 927.256 13.216 927.736 13.6C928.24 13.984 928.492 14.512 928.492 15.184C928.492 15.52 928.444 15.844 928.348 16.156L927.412 19.504C927.244 20.152 926.992 20.608 926.656 20.872C926.344 21.112 925.888 21.232 925.288 21.232C924.712 21.232 924.256 21.112 923.92 20.872C923.608 20.608 923.368 20.188 923.2 19.612L922.624 17.56C922.504 17.128 922.36 16.84 922.192 16.696C922.024 16.552 921.7 16.48 921.22 16.48H917.44L915.64 22.888H917.224C917.392 22.888 917.62 22.768 917.908 22.528L919.132 21.448C919.492 21.136 919.804 20.908 920.068 20.764C920.332 20.62 920.656 20.548 921.04 20.548C921.472 20.548 921.82 20.668 922.084 20.908C922.372 21.124 922.516 21.412 922.516 21.772C922.516 21.868 922.492 22.012 922.444 22.204L920.968 27.208C920.824 27.736 920.572 28.132 920.212 28.396C919.876 28.636 919.504 28.756 919.096 28.756C918.424 28.756 917.92 28.408 917.584 27.712L916.972 26.452C916.804 26.092 916.54 25.912 916.18 25.912H914.776L912.652 33.544H915.82C916.276 33.544 916.672 33.46 917.008 33.292C917.368 33.1 917.752 32.776 918.16 32.32L920.32 29.944C920.704 29.536 921.064 29.248 921.4 29.08C921.76 28.888 922.192 28.792 922.696 28.792C923.224 28.792 923.656 28.912 923.992 29.152C924.328 29.392 924.496 29.752 924.496 30.232C924.496 30.424 924.46 30.652 924.388 30.916L923.344 34.552C923.08 35.464 922.696 36.1 922.192 36.46C921.688 36.82 920.956 37 919.996 37H902.824C902.32 37 901.936 36.916 901.672 36.748C901.384 36.58 901.24 36.352 901.24 36.064C901.24 35.92 901.276 35.764 901.348 35.596C901.444 35.332 901.6 35.128 901.816 34.984C902.032 34.84 902.164 34.756 902.212 34.732C902.596 34.492 902.908 34.252 903.148 34.012C903.388 33.748 903.592 33.328 903.76 32.752L908.188 17.236C908.284 16.924 908.332 16.636 908.332 16.372C908.332 16.084 908.284 15.844 908.188 15.652C908.116 15.46 907.996 15.256 907.828 15.04C907.612 14.728 907.504 14.476 907.504 14.284C907.504 14.212 907.528 14.08 907.576 13.888C907.672 13.576 907.888 13.36 908.224 13.24C908.56 13.096 909.052 13.024 909.7 13.024H925.684ZM948.612 32.032C948.564 32.128 948.54 32.272 948.54 32.464C948.54 32.632 948.576 32.764 948.648 32.86C948.744 32.956 948.864 33.004 949.008 33.004C949.296 33.004 949.536 32.884 949.728 32.644C949.944 32.38 950.088 32.248 950.16 32.248C950.28 32.248 950.376 32.332 950.448 32.5C950.52 32.644 950.556 32.824 950.556 33.04C950.58 33.736 950.352 34.42 949.872 35.092C949.392 35.74 948.684 36.28 947.748 36.712C946.836 37.12 945.732 37.324 944.436 37.324C942.852 37.324 941.592 36.964 940.656 36.244C939.72 35.5 939.24 34.516 939.216 33.292C939.216 32.404 939.432 31.408 939.864 30.304L941.844 25.12C941.964 24.808 942.024 24.556 942.024 24.364C942.024 24.052 941.916 23.812 941.7 23.644C941.508 23.452 941.268 23.356 940.98 23.356C940.452 23.356 939.948 23.608 939.468 24.112C938.988 24.592 938.64 25.192 938.424 25.912L936.192 33.256C936.096 33.52 936.048 33.772 936.048 34.012C936.048 34.3 936.108 34.54 936.228 34.732C936.348 34.9 936.516 35.08 936.732 35.272C936.9 35.416 937.02 35.548 937.092 35.668C937.164 35.788 937.176 35.932 937.128 36.1C937.032 36.412 936.804 36.64 936.444 36.784C936.084 36.928 935.52 37 934.752 37H926.544C925.92 37 925.476 36.904 925.212 36.712C924.924 36.496 924.816 36.22 924.888 35.884C924.984 35.596 925.236 35.344 925.644 35.128C926.004 34.936 926.304 34.708 926.544 34.444C926.784 34.18 926.988 33.76 927.156 33.184L930.36 22.78C930.408 22.66 930.432 22.492 930.432 22.276C930.432 22.012 930.372 21.808 930.252 21.664C930.156 21.52 929.988 21.34 929.748 21.124C929.508 20.932 929.34 20.764 929.244 20.62C929.148 20.476 929.136 20.284 929.208 20.044C929.352 19.492 930.108 19.012 931.476 18.604C932.844 18.172 934.272 17.956 935.76 17.956C936.96 17.956 937.908 18.292 938.604 18.964C939.3 19.612 939.612 20.524 939.54 21.7C940.524 20.284 941.568 19.312 942.672 18.784C943.776 18.232 944.976 17.956 946.272 17.956C947.736 17.956 948.912 18.4 949.8 19.288C950.712 20.176 951.168 21.328 951.168 22.744C951.168 23.488 951.048 24.22 950.808 24.94L948.612 32.032ZM972.222 31.816C972.174 32.008 972.15 32.14 972.15 32.212C972.15 32.38 972.198 32.512 972.294 32.608C972.39 32.704 972.51 32.752 972.654 32.752C972.942 32.752 973.182 32.632 973.374 32.392C973.59 32.128 973.734 31.996 973.806 31.996C973.926 31.996 974.022 32.08 974.094 32.248C974.166 32.416 974.202 32.608 974.202 32.824C974.226 33.472 973.974 34.132 973.446 34.804C972.942 35.476 972.258 36.028 971.394 36.46C970.53 36.892 969.594 37.108 968.586 37.108C967.386 37.108 966.342 36.88 965.454 36.424C964.566 35.968 963.954 35.368 963.618 34.624C962.97 35.464 962.226 36.088 961.386 36.496C960.546 36.904 959.658 37.108 958.722 37.108C957.618 37.108 956.586 36.832 955.626 36.28C954.69 35.728 953.934 34.948 953.358 33.94C952.806 32.908 952.53 31.744 952.53 30.448C952.53 28.264 952.938 26.212 953.754 24.292C954.594 22.348 955.758 20.788 957.246 19.612C958.734 18.412 960.426 17.812 962.322 17.812C963.354 17.812 964.23 17.932 964.95 18.172C965.694 18.412 966.366 18.772 966.966 19.252L968.19 15.22C968.262 15.004 968.298 14.824 968.298 14.68C968.298 14.416 968.226 14.2 968.082 14.032C967.962 13.864 967.794 13.696 967.578 13.528C967.338 13.336 967.158 13.168 967.038 13.024C966.942 12.88 966.93 12.688 967.002 12.448C967.146 11.896 967.902 11.416 969.27 11.008C970.638 10.6 972.066 10.396 973.554 10.396C974.946 10.396 975.966 10.66 976.614 11.188C977.286 11.716 977.622 12.436 977.622 13.348C977.622 13.876 977.538 14.392 977.37 14.896L972.222 31.816ZM966.21 21.7C965.826 21.364 965.406 21.196 964.95 21.196C964.254 21.196 963.57 21.712 962.898 22.744C962.226 23.776 961.686 25.024 961.278 26.488C960.87 27.952 960.678 29.272 960.702 30.448C960.702 31.768 961.134 32.428 961.998 32.428C962.31 32.428 962.574 32.308 962.79 32.068C963.006 31.804 963.21 31.384 963.402 30.808L966.21 21.7ZM1000.14 13.024C1003.74 13.024 1006.45 13.72 1008.27 15.112C1010.1 16.48 1011.01 18.496 1011.01 21.16C1011.01 22.48 1010.77 24.004 1010.29 25.732C1009.5 28.516 1008.43 30.724 1007.09 32.356C1005.74 33.988 1003.97 35.176 1001.76 35.92C999.575 36.664 996.767 37.024 993.335 37L983.543 36.964C983.039 36.964 982.655 36.88 982.391 36.712C982.103 36.544 981.959 36.316 981.959 36.028C981.959 35.884 981.995 35.728 982.067 35.56C982.139 35.344 982.247 35.188 982.391 35.092C982.511 34.996 982.703 34.864 982.967 34.696C983.351 34.48 983.651 34.24 983.867 33.976C984.107 33.712 984.311 33.292 984.479 32.716L988.871 17.236C988.967 16.924 989.015 16.624 989.015 16.336C989.015 16.072 988.967 15.856 988.871 15.688C988.799 15.496 988.691 15.28 988.547 15.04C988.331 14.728 988.223 14.476 988.223 14.284C988.223 14.212 988.247 14.08 988.295 13.888C988.391 13.576 988.595 13.36 988.907 13.24C989.243 13.096 989.747 13.024 990.419 13.024H1000.14ZM1001.07 24.94C1001.7 22.684 1002.01 20.908 1002.01 19.612C1002.01 18.34 1001.75 17.464 1001.22 16.984C1000.69 16.504 999.935 16.264 998.951 16.264H998.159L993.299 33.76H994.163C995.267 33.76 996.191 33.532 996.935 33.076C997.703 32.596 998.411 31.732 999.059 30.484C999.707 29.212 1000.38 27.364 1001.07 24.94ZM1022.91 17.776C1025.96 17.776 1028.16 18.268 1029.53 19.252C1030.9 20.212 1031.58 21.448 1031.58 22.96C1031.58 23.416 1031.54 23.836 1031.44 24.22C1031.08 25.804 1030.07 26.944 1028.42 27.64C1026.78 28.312 1024.85 28.648 1022.62 28.648C1021.49 28.648 1020.44 28.576 1019.45 28.432C1019.43 29.68 1019.76 30.556 1020.46 31.06C1021.16 31.564 1022.13 31.816 1023.38 31.816C1023.95 31.816 1024.5 31.756 1025.03 31.636C1025.56 31.492 1026.23 31.288 1027.05 31.024C1027.72 30.784 1028.18 30.664 1028.42 30.664C1028.68 30.664 1028.81 30.82 1028.81 31.132C1028.84 31.972 1028.52 32.86 1027.88 33.796C1027.23 34.708 1026.27 35.488 1025 36.136C1023.72 36.784 1022.19 37.108 1020.39 37.108C1017.72 37.108 1015.54 36.436 1013.84 35.092C1012.13 33.748 1011.28 31.792 1011.28 29.224C1011.28 28.504 1011.38 27.664 1011.57 26.704C1012.17 23.752 1013.48 21.532 1015.49 20.044C1017.53 18.532 1020 17.776 1022.91 17.776ZM1019.7 26.272C1019.8 26.296 1019.93 26.308 1020.1 26.308C1021.11 26.308 1021.88 25.84 1022.4 24.904C1022.93 23.968 1023.18 22.924 1023.16 21.772C1023.14 21.1 1022.94 20.764 1022.58 20.764C1022.32 20.764 1022.01 20.98 1021.65 21.412C1021.29 21.82 1020.93 22.444 1020.57 23.284C1020.23 24.124 1019.94 25.12 1019.7 26.272ZM1048.42 17.956C1049.69 17.956 1050.74 18.412 1051.58 19.324C1052.42 20.236 1052.84 21.484 1052.84 23.068C1052.84 25.204 1052.1 27.388 1050.61 29.62C1049.12 31.852 1047.24 33.7 1044.96 35.164C1042.68 36.604 1040.46 37.324 1038.3 37.324C1036.24 37.324 1034.56 36.904 1033.26 36.064C1031.99 35.224 1031.35 34.024 1031.35 32.464C1031.35 31.888 1031.46 31.24 1031.68 30.52L1033.94 22.78C1033.99 22.588 1034.02 22.444 1034.02 22.348C1034.02 22.108 1033.96 21.904 1033.84 21.736C1033.72 21.568 1033.55 21.388 1033.33 21.196C1032.97 20.884 1032.79 20.608 1032.79 20.368C1032.77 20.032 1032.97 19.672 1033.4 19.288C1033.84 18.904 1034.44 18.592 1035.2 18.352C1036 18.088 1036.88 17.956 1037.87 17.956C1039.48 17.956 1040.72 18.352 1041.61 19.144C1042.52 19.912 1042.98 20.92 1042.98 22.168C1042.98 22.72 1042.88 23.32 1042.69 23.968L1040.35 31.672C1040.28 31.888 1040.24 32.068 1040.24 32.212C1040.24 32.524 1040.35 32.764 1040.57 32.932C1040.78 33.1 1041.08 33.184 1041.47 33.184C1042 33.184 1042.61 32.956 1043.3 32.5C1044.02 32.02 1044.73 31.348 1045.43 30.484C1046.12 29.596 1046.69 28.552 1047.12 27.352C1046.16 26.512 1045.48 25.684 1045.07 24.868C1044.68 24.052 1044.49 23.212 1044.49 22.348C1044.49 21.124 1044.83 20.092 1045.5 19.252C1046.17 18.388 1047.14 17.956 1048.42 17.956ZM1064.6 17.776C1067.65 17.776 1069.86 18.268 1071.23 19.252C1072.59 20.212 1073.28 21.448 1073.28 22.96C1073.28 23.416 1073.23 23.836 1073.13 24.22C1072.77 25.804 1071.77 26.944 1070.11 27.64C1068.48 28.312 1066.55 28.648 1064.31 28.648C1063.19 28.648 1062.13 28.576 1061.15 28.432C1061.12 29.68 1061.46 30.556 1062.15 31.06C1062.85 31.564 1063.82 31.816 1065.07 31.816C1065.65 31.816 1066.2 31.756 1066.73 31.636C1067.25 31.492 1067.93 31.288 1068.74 31.024C1069.41 30.784 1069.87 30.664 1070.11 30.664C1070.37 30.664 1070.51 30.82 1070.51 31.132C1070.53 31.972 1070.22 32.86 1069.57 33.796C1068.92 34.708 1067.96 35.488 1066.69 36.136C1065.42 36.784 1063.88 37.108 1062.08 37.108C1059.42 37.108 1057.23 36.436 1055.53 35.092C1053.83 33.748 1052.97 31.792 1052.97 29.224C1052.97 28.504 1053.07 27.664 1053.26 26.704C1053.86 23.752 1055.17 21.532 1057.19 20.044C1059.23 18.532 1061.7 17.776 1064.6 17.776ZM1061.4 26.272C1061.49 26.296 1061.63 26.308 1061.79 26.308C1062.8 26.308 1063.57 25.84 1064.1 24.904C1064.63 23.968 1064.88 22.924 1064.85 21.772C1064.83 21.1 1064.64 20.764 1064.28 20.764C1064.01 20.764 1063.7 20.98 1063.34 21.412C1062.98 21.82 1062.62 22.444 1062.26 23.284C1061.93 24.124 1061.64 25.12 1061.4 26.272ZM1084.03 10.396C1085.42 10.396 1086.44 10.66 1087.09 11.188C1087.76 11.716 1088.09 12.436 1088.09 13.348C1088.09 13.876 1088.01 14.392 1087.84 14.896L1082.19 33.256C1082.12 33.544 1082.08 33.796 1082.08 34.012C1082.08 34.324 1082.14 34.576 1082.26 34.768C1082.38 34.936 1082.55 35.104 1082.77 35.272C1082.93 35.44 1083.05 35.584 1083.13 35.704C1083.2 35.8 1083.21 35.932 1083.16 36.1C1083.04 36.412 1082.8 36.64 1082.44 36.784C1082.08 36.928 1081.53 37 1080.79 37H1072.58C1071.95 37 1071.5 36.904 1071.21 36.712C1070.92 36.496 1070.83 36.22 1070.92 35.884C1071.02 35.596 1071.27 35.344 1071.68 35.128C1072.04 34.936 1072.34 34.708 1072.58 34.444C1072.82 34.18 1073.02 33.76 1073.19 33.184L1078.66 15.22C1078.73 15.004 1078.77 14.824 1078.77 14.68C1078.77 14.416 1078.7 14.2 1078.55 14.032C1078.43 13.864 1078.27 13.696 1078.05 13.528C1077.81 13.336 1077.63 13.168 1077.51 13.024C1077.41 12.88 1077.4 12.688 1077.47 12.448C1077.62 11.896 1078.37 11.416 1079.74 11.008C1081.11 10.6 1082.54 10.396 1084.03 10.396ZM1099.66 17.956C1102.92 17.956 1105.32 18.616 1106.86 19.936C1108.42 21.256 1109.2 22.984 1109.2 25.12C1109.2 25.84 1109.1 26.644 1108.91 27.532C1108.45 29.5 1107.6 31.228 1106.35 32.716C1105.11 34.18 1103.57 35.32 1101.75 36.136C1099.95 36.928 1097.99 37.324 1095.88 37.324C1092.54 37.324 1090.07 36.664 1088.46 35.344C1086.88 34 1086.09 32.224 1086.09 30.016C1086.09 29.272 1086.18 28.444 1086.37 27.532C1086.83 25.66 1087.69 24.004 1088.97 22.564C1090.26 21.1 1091.83 19.972 1093.68 19.18C1095.55 18.364 1097.55 17.956 1099.66 17.956ZM1099.55 21.16C1099.05 21.16 1098.51 21.616 1097.93 22.528C1097.38 23.416 1096.72 25.108 1095.95 27.604C1095.18 30.1 1094.8 31.852 1094.8 32.86C1094.8 33.388 1094.88 33.748 1095.05 33.94C1095.22 34.108 1095.45 34.192 1095.73 34.192C1096.24 34.24 1096.75 33.808 1097.28 32.896C1097.83 31.984 1098.52 30.208 1099.33 27.568C1100.08 25.24 1100.45 23.548 1100.45 22.492C1100.45 21.988 1100.37 21.64 1100.2 21.448C1100.05 21.256 1099.84 21.16 1099.55 21.16ZM1127.48 17.812C1129.32 17.812 1130.78 18.424 1131.83 19.648C1132.89 20.872 1133.42 22.54 1133.42 24.652C1133.42 25.78 1133.26 26.968 1132.95 28.216C1132.23 31.192 1130.88 33.46 1128.92 35.02C1126.95 36.556 1124.67 37.324 1122.08 37.324C1120.42 37.324 1118.98 36.976 1117.76 36.28L1116.6 40.132C1116.51 40.396 1116.46 40.648 1116.46 40.888C1116.46 41.152 1116.52 41.368 1116.64 41.536C1116.76 41.728 1116.92 41.908 1117.11 42.076C1117.3 42.268 1117.42 42.424 1117.47 42.544C1117.54 42.664 1117.55 42.808 1117.5 42.976C1117.41 43.288 1117.18 43.504 1116.82 43.624C1116.46 43.768 1115.91 43.84 1115.16 43.84H1106.92C1106.3 43.84 1105.85 43.732 1105.59 43.516C1105.3 43.324 1105.22 43.072 1105.34 42.76C1105.38 42.568 1105.47 42.412 1105.59 42.292C1105.71 42.172 1105.88 42.064 1106.09 41.968C1106.45 41.728 1106.74 41.476 1106.96 41.212C1107.17 40.972 1107.36 40.576 1107.53 40.024L1112.79 22.78C1112.86 22.564 1112.9 22.384 1112.9 22.24C1112.9 21.976 1112.84 21.772 1112.72 21.628C1112.6 21.46 1112.42 21.292 1112.18 21.124C1111.94 20.932 1111.77 20.764 1111.67 20.62C1111.58 20.476 1111.56 20.284 1111.64 20.044C1111.78 19.492 1112.54 19.012 1113.9 18.604C1115.27 18.172 1116.7 17.956 1118.19 17.956C1119.24 17.956 1120.11 18.22 1120.78 18.748C1121.48 19.276 1121.87 20.008 1121.97 20.944C1123.6 18.856 1125.44 17.812 1127.48 17.812ZM1123.3 28.504C1123.88 26.368 1124.16 24.892 1124.16 24.076C1124.16 23.572 1124.08 23.248 1123.91 23.104C1123.77 22.936 1123.55 22.852 1123.26 22.852C1123.05 22.852 1122.77 22.96 1122.44 23.176C1122.1 23.368 1121.76 23.704 1121.43 24.184L1118.58 33.616C1118.87 33.904 1119.22 34.048 1119.63 34.048C1120.28 34.048 1120.89 33.688 1121.46 32.968C1122.06 32.224 1122.68 30.736 1123.3 28.504ZM1145.74 17.776C1148.79 17.776 1151 18.268 1152.37 19.252C1153.74 20.212 1154.42 21.448 1154.42 22.96C1154.42 23.416 1154.37 23.836 1154.28 24.22C1153.92 25.804 1152.91 26.944 1151.25 27.64C1149.62 28.312 1147.69 28.648 1145.46 28.648C1144.33 28.648 1143.27 28.576 1142.29 28.432C1142.26 29.68 1142.6 30.556 1143.3 31.06C1143.99 31.564 1144.96 31.816 1146.21 31.816C1146.79 31.816 1147.34 31.756 1147.87 31.636C1148.4 31.492 1149.07 31.288 1149.88 31.024C1150.56 30.784 1151.01 30.664 1151.25 30.664C1151.52 30.664 1151.65 30.82 1151.65 31.132C1151.67 31.972 1151.36 32.86 1150.71 33.796C1150.06 34.708 1149.1 35.488 1147.83 36.136C1146.56 36.784 1145.02 37.108 1143.22 37.108C1140.56 37.108 1138.38 36.436 1136.67 35.092C1134.97 33.748 1134.12 31.792 1134.12 29.224C1134.12 28.504 1134.21 27.664 1134.4 26.704C1135 23.752 1136.31 21.532 1138.33 20.044C1140.37 18.532 1142.84 17.776 1145.74 17.776ZM1142.54 26.272C1142.64 26.296 1142.77 26.308 1142.94 26.308C1143.94 26.308 1144.71 25.84 1145.24 24.904C1145.77 23.968 1146.02 22.924 1146 21.772C1145.97 21.1 1145.78 20.764 1145.42 20.764C1145.16 20.764 1144.84 20.98 1144.48 21.412C1144.12 21.82 1143.76 22.444 1143.4 23.284C1143.07 24.124 1142.78 25.12 1142.54 26.272ZM1171.36 17.956C1172.7 17.956 1173.77 18.364 1174.56 19.18C1175.38 19.996 1175.79 21.004 1175.79 22.204C1175.79 22.66 1175.74 23.08 1175.64 23.464C1175.4 24.448 1174.95 25.204 1174.28 25.732C1173.6 26.26 1172.8 26.524 1171.86 26.524C1170.95 26.524 1170.26 26.308 1169.78 25.876C1169.32 25.444 1168.91 24.868 1168.55 24.148C1168.36 23.74 1168.18 23.44 1168.01 23.248C1167.84 23.056 1167.65 22.96 1167.44 22.96C1167.2 22.96 1166.98 23.056 1166.79 23.248C1166.62 23.44 1166.46 23.776 1166.32 24.256L1163.55 33.256C1163.5 33.376 1163.48 33.556 1163.48 33.796C1163.48 34.108 1163.56 34.372 1163.73 34.588C1163.92 34.78 1164.17 34.972 1164.48 35.164C1164.77 35.356 1164.96 35.512 1165.06 35.632C1165.16 35.752 1165.19 35.908 1165.17 36.1C1165.12 36.412 1164.94 36.64 1164.63 36.784C1164.34 36.928 1163.84 37 1163.12 37H1153.9C1153.28 37 1152.83 36.904 1152.57 36.712C1152.28 36.496 1152.17 36.22 1152.24 35.884C1152.34 35.596 1152.59 35.344 1153 35.128C1153.36 34.936 1153.66 34.708 1153.9 34.444C1154.14 34.18 1154.34 33.76 1154.51 33.184L1157.72 22.78C1157.76 22.66 1157.79 22.492 1157.79 22.276C1157.79 22.012 1157.73 21.808 1157.61 21.664C1157.51 21.52 1157.34 21.34 1157.1 21.124C1156.86 20.932 1156.7 20.764 1156.6 20.62C1156.5 20.476 1156.49 20.284 1156.56 20.044C1156.71 19.492 1157.46 19.012 1158.83 18.604C1160.2 18.172 1161.63 17.956 1163.12 17.956C1164.1 17.956 1164.92 18.184 1165.56 18.64C1166.21 19.072 1166.63 19.696 1166.82 20.512C1167.98 18.808 1169.49 17.956 1171.36 17.956Z" fill="black"/>
</g>
</svg>
